<svg width="1900" height="159" viewBox="0 0 1900 159" fill="none" xmlns="http://www.w3.org/2000/svg">
<rect width="1900" height="159" fill="#0081FD"/>
<path d="M606.02 92V74.6H600.02V71H616.1V74.6H609.92V92H606.02ZM623.507 92.3C621.927 92.3 620.517 91.95 619.277 91.25C618.037 90.53 617.057 89.55 616.337 88.31C615.617 87.07 615.257 85.66 615.257 84.08C615.257 82.5 615.617 81.09 616.337 79.85C617.057 78.61 618.037 77.64 619.277 76.94C620.517 76.22 621.927 75.86 623.507 75.86C625.067 75.86 626.467 76.22 627.707 76.94C628.947 77.64 629.917 78.61 630.617 79.85C631.337 81.09 631.697 82.5 631.697 84.08C631.697 85.66 631.337 87.07 630.617 88.31C629.917 89.55 628.947 90.53 627.707 91.25C626.467 91.95 625.067 92.3 623.507 92.3ZM623.507 89.03C624.367 89.03 625.127 88.81 625.787 88.37C626.467 87.93 626.997 87.34 627.377 86.6C627.777 85.86 627.967 85.02 627.947 84.08C627.967 83.12 627.777 82.27 627.377 81.53C626.997 80.79 626.467 80.21 625.787 79.79C625.127 79.35 624.367 79.13 623.507 79.13C622.647 79.13 621.867 79.35 621.167 79.79C620.487 80.21 619.957 80.8 619.577 81.56C619.197 82.3 619.007 83.14 619.007 84.08C619.007 85.02 619.197 85.86 619.577 86.6C619.957 87.34 620.487 87.93 621.167 88.37C621.867 88.81 622.647 89.03 623.507 89.03ZM641.358 92.3C639.958 92.3 638.698 91.95 637.578 91.25C636.478 90.53 635.598 89.56 634.938 88.34C634.298 87.1 633.978 85.68 633.978 84.08C633.978 82.5 634.298 81.09 634.938 79.85C635.578 78.61 636.448 77.64 637.548 76.94C638.668 76.22 639.928 75.86 641.328 75.86C642.088 75.86 642.818 75.98 643.518 76.22C644.238 76.46 644.878 76.79 645.438 77.21C645.998 77.61 646.438 78.06 646.758 78.56C647.098 79.06 647.288 79.58 647.328 80.12L646.338 80.24V69.8H650.028V92H646.458L646.368 88.28L647.088 88.34C647.068 88.84 646.888 89.32 646.548 89.78C646.228 90.24 645.808 90.66 645.288 91.04C644.768 91.42 644.158 91.73 643.458 91.97C642.778 92.19 642.078 92.3 641.358 92.3ZM642.078 89.18C642.938 89.18 643.698 88.96 644.358 88.52C645.018 88.08 645.528 87.48 645.888 86.72C646.268 85.96 646.458 85.08 646.458 84.08C646.458 83.1 646.268 82.23 645.888 81.47C645.528 80.69 645.018 80.09 644.358 79.67C643.698 79.23 642.938 79.01 642.078 79.01C641.218 79.01 640.458 79.23 639.798 79.67C639.138 80.09 638.618 80.69 638.238 81.47C637.878 82.23 637.698 83.1 637.698 84.08C637.698 85.08 637.878 85.96 638.238 86.72C638.618 87.48 639.138 88.08 639.798 88.52C640.458 88.96 641.218 89.18 642.078 89.18ZM661.447 92.3C659.867 92.3 658.457 91.95 657.217 91.25C655.977 90.53 654.997 89.55 654.277 88.31C653.557 87.07 653.197 85.66 653.197 84.08C653.197 82.5 653.557 81.09 654.277 79.85C654.997 78.61 655.977 77.64 657.217 76.94C658.457 76.22 659.867 75.86 661.447 75.86C663.007 75.86 664.407 76.22 665.647 76.94C666.887 77.64 667.857 78.61 668.557 79.85C669.277 81.09 669.637 82.5 669.637 84.08C669.637 85.66 669.277 87.07 668.557 88.31C667.857 89.55 666.887 90.53 665.647 91.25C664.407 91.95 663.007 92.3 661.447 92.3ZM661.447 89.03C662.307 89.03 663.067 88.81 663.727 88.37C664.407 87.93 664.937 87.34 665.317 86.6C665.717 85.86 665.907 85.02 665.887 84.08C665.907 83.12 665.717 82.27 665.317 81.53C664.937 80.79 664.407 80.21 663.727 79.79C663.067 79.35 662.307 79.13 661.447 79.13C660.587 79.13 659.807 79.35 659.107 79.79C658.427 80.21 657.897 80.8 657.517 81.56C657.137 82.3 656.947 83.14 656.947 84.08C656.947 85.02 657.137 85.86 657.517 86.6C657.897 87.34 658.427 87.93 659.107 88.37C659.807 88.81 660.587 89.03 661.447 89.03ZM681.786 92V69.8H685.506V92H681.786ZM696.779 92.3C695.199 92.3 693.789 91.95 692.549 91.25C691.309 90.53 690.329 89.55 689.609 88.31C688.889 87.07 688.529 85.66 688.529 84.08C688.529 82.5 688.889 81.09 689.609 79.85C690.329 78.61 691.309 77.64 692.549 76.94C693.789 76.22 695.199 75.86 696.779 75.86C698.339 75.86 699.739 76.22 700.979 76.94C702.219 77.64 703.189 78.61 703.889 79.85C704.609 81.09 704.969 82.5 704.969 84.08C704.969 85.66 704.609 87.07 703.889 88.31C703.189 89.55 702.219 90.53 700.979 91.25C699.739 91.95 698.339 92.3 696.779 92.3ZM696.779 89.03C697.639 89.03 698.399 88.81 699.059 88.37C699.739 87.93 700.269 87.34 700.649 86.6C701.049 85.86 701.239 85.02 701.219 84.08C701.239 83.12 701.049 82.27 700.649 81.53C700.269 80.79 699.739 80.21 699.059 79.79C698.399 79.35 697.639 79.13 696.779 79.13C695.919 79.13 695.139 79.35 694.439 79.79C693.759 80.21 693.229 80.8 692.849 81.56C692.469 82.3 692.279 83.14 692.279 84.08C692.279 85.02 692.469 85.86 692.849 86.6C693.229 87.34 693.759 87.93 694.439 88.37C695.139 88.81 695.919 89.03 696.779 89.03ZM728.278 98.6V88.22L729.028 88.31C729.008 88.79 728.828 89.27 728.488 89.75C728.168 90.21 727.738 90.64 727.198 91.04C726.678 91.42 726.088 91.73 725.428 91.97C724.788 92.19 724.118 92.3 723.418 92.3C722.018 92.3 720.758 91.95 719.638 91.25C718.538 90.53 717.668 89.55 717.028 88.31C716.388 87.07 716.068 85.66 716.068 84.08C716.068 82.48 716.378 81.07 716.998 79.85C717.638 78.61 718.498 77.64 719.578 76.94C720.678 76.22 721.928 75.86 723.328 75.86C724.088 75.86 724.818 75.98 725.518 76.22C726.218 76.46 726.848 76.78 727.408 77.18C727.968 77.58 728.408 78.03 728.728 78.53C729.068 79.03 729.248 79.54 729.268 80.06L728.308 80.15L728.368 76.16H731.968V98.6H728.278ZM724.018 89.03C724.878 89.03 725.638 88.82 726.298 88.4C726.958 87.98 727.468 87.4 727.828 86.66C728.208 85.92 728.398 85.06 728.398 84.08C728.398 83.1 728.208 82.24 727.828 81.5C727.468 80.74 726.958 80.15 726.298 79.73C725.638 79.31 724.878 79.1 724.018 79.1C723.158 79.1 722.398 79.32 721.738 79.76C721.078 80.18 720.558 80.77 720.178 81.53C719.818 82.27 719.638 83.12 719.638 84.08C719.638 85.04 719.818 85.9 720.178 86.66C720.558 87.4 721.078 87.98 721.738 88.4C722.398 88.82 723.158 89.03 724.018 89.03ZM741.767 92.3C740.627 92.3 739.637 92.05 738.797 91.55C737.957 91.03 737.317 90.3 736.877 89.36C736.437 88.4 736.217 87.26 736.217 85.94V76.19H739.907V85.16C739.907 86 740.037 86.72 740.297 87.32C740.557 87.9 740.937 88.35 741.437 88.67C741.937 88.99 742.537 89.15 743.237 89.15C743.757 89.15 744.227 89.07 744.647 88.91C745.087 88.73 745.467 88.49 745.787 88.19C746.107 87.87 746.357 87.5 746.537 87.08C746.717 86.64 746.807 86.17 746.807 85.67V76.19H750.497V92H746.897L746.837 88.7L747.497 88.34C747.257 89.1 746.847 89.78 746.267 90.38C745.707 90.96 745.037 91.43 744.257 91.79C743.477 92.13 742.647 92.3 741.767 92.3ZM762.232 92.3C760.572 92.3 759.102 91.95 757.822 91.25C756.562 90.55 755.572 89.6 754.852 88.4C754.152 87.18 753.802 85.79 753.802 84.23C753.802 82.99 754.002 81.86 754.402 80.84C754.802 79.82 755.352 78.94 756.052 78.2C756.772 77.44 757.622 76.86 758.602 76.46C759.602 76.04 760.692 75.83 761.872 75.83C762.912 75.83 763.882 76.03 764.782 76.43C765.682 76.83 766.462 77.38 767.122 78.08C767.782 78.76 768.282 79.58 768.622 80.54C768.982 81.48 769.152 82.51 769.132 83.63L769.102 84.92H756.292L755.602 82.4H766.012L765.532 82.91V82.25C765.472 81.63 765.272 81.09 764.932 80.63C764.592 80.15 764.152 79.78 763.612 79.52C763.092 79.24 762.512 79.1 761.872 79.1C760.892 79.1 760.062 79.29 759.382 79.67C758.722 80.05 758.222 80.6 757.882 81.32C757.542 82.02 757.372 82.9 757.372 83.96C757.372 84.98 757.582 85.87 758.002 86.63C758.442 87.39 759.052 87.98 759.832 88.4C760.632 88.8 761.562 89 762.622 89C763.362 89 764.042 88.88 764.662 88.64C765.282 88.4 765.952 87.97 766.672 87.35L768.502 89.9C767.962 90.4 767.342 90.83 766.642 91.19C765.962 91.53 765.242 91.8 764.482 92C763.722 92.2 762.972 92.3 762.232 92.3ZM781.219 92V69.8H784.879V79.43L784.189 79.79C784.389 79.07 784.779 78.42 785.359 77.84C785.939 77.24 786.629 76.76 787.429 76.4C788.229 76.04 789.049 75.86 789.889 75.86C791.089 75.86 792.089 76.1 792.889 76.58C793.709 77.06 794.319 77.78 794.719 78.74C795.139 79.7 795.349 80.9 795.349 82.34V92H791.659V82.61C791.659 81.81 791.549 81.15 791.329 80.63C791.109 80.09 790.769 79.7 790.309 79.46C789.849 79.2 789.289 79.08 788.629 79.1C788.089 79.1 787.589 79.19 787.129 79.37C786.689 79.53 786.299 79.77 785.959 80.09C785.639 80.39 785.379 80.74 785.179 81.14C784.999 81.54 784.909 81.98 784.909 82.46V92H783.079C782.719 92 782.379 92 782.059 92C781.759 92 781.479 92 781.219 92ZM805.47 92.3C804.17 92.3 802.99 91.94 801.93 91.22C800.87 90.5 800.02 89.52 799.38 88.28C798.74 87.04 798.42 85.63 798.42 84.05C798.42 82.47 798.74 81.06 799.38 79.82C800.02 78.58 800.89 77.61 801.99 76.91C803.09 76.21 804.33 75.86 805.71 75.86C806.51 75.86 807.24 75.98 807.9 76.22C808.56 76.44 809.14 76.76 809.64 77.18C810.14 77.6 810.55 78.08 810.87 78.62C811.21 79.16 811.44 79.74 811.56 80.36L810.75 80.15V76.19H814.47V92H810.72V88.22L811.59 88.07C811.45 88.61 811.19 89.14 810.81 89.66C810.45 90.16 809.99 90.61 809.43 91.01C808.89 91.39 808.28 91.7 807.6 91.94C806.94 92.18 806.23 92.3 805.47 92.3ZM806.49 89.03C807.35 89.03 808.11 88.82 808.77 88.4C809.43 87.98 809.94 87.4 810.3 86.66C810.68 85.9 810.87 85.03 810.87 84.05C810.87 83.09 810.68 82.24 810.3 81.5C809.94 80.76 809.43 80.18 808.77 79.76C808.11 79.34 807.35 79.13 806.49 79.13C805.63 79.13 804.87 79.34 804.21 79.76C803.57 80.18 803.07 80.76 802.71 81.5C802.35 82.24 802.17 83.09 802.17 84.05C802.17 85.03 802.35 85.9 802.71 86.66C803.07 87.4 803.57 87.98 804.21 88.4C804.87 88.82 805.63 89.03 806.49 89.03ZM825.528 92.3C824.048 92.3 822.718 91.94 821.538 91.22C820.358 90.5 819.428 89.52 818.748 88.28C818.068 87.04 817.728 85.64 817.728 84.08C817.728 82.52 818.068 81.12 818.748 79.88C819.428 78.64 820.358 77.66 821.538 76.94C822.718 76.22 824.048 75.86 825.528 75.86C826.948 75.86 828.238 76.13 829.398 76.67C830.558 77.21 831.458 77.96 832.098 78.92L830.058 81.38C829.758 80.96 829.378 80.58 828.918 80.24C828.458 79.9 827.968 79.63 827.448 79.43C826.928 79.23 826.408 79.13 825.888 79.13C825.008 79.13 824.218 79.35 823.518 79.79C822.838 80.21 822.298 80.8 821.898 81.56C821.498 82.3 821.298 83.14 821.298 84.08C821.298 85.02 821.498 85.86 821.898 86.6C822.318 87.34 822.878 87.93 823.578 88.37C824.278 88.81 825.058 89.03 825.918 89.03C826.438 89.03 826.938 88.95 827.418 88.79C827.918 88.61 828.388 88.36 828.828 88.04C829.268 87.72 829.678 87.32 830.058 86.84L832.098 89.33C831.418 90.21 830.478 90.93 829.278 91.49C828.098 92.03 826.848 92.3 825.528 92.3ZM842.33 92.3C840.67 92.3 839.2 91.95 837.92 91.25C836.66 90.55 835.67 89.6 834.95 88.4C834.25 87.18 833.9 85.79 833.9 84.23C833.9 82.99 834.1 81.86 834.5 80.84C834.9 79.82 835.45 78.94 836.15 78.2C836.87 77.44 837.72 76.86 838.7 76.46C839.7 76.04 840.79 75.83 841.97 75.83C843.01 75.83 843.98 76.03 844.88 76.43C845.78 76.83 846.56 77.38 847.22 78.08C847.88 78.76 848.38 79.58 848.72 80.54C849.08 81.48 849.25 82.51 849.23 83.63L849.2 84.92H836.39L835.7 82.4H846.11L845.63 82.91V82.25C845.57 81.63 845.37 81.09 845.03 80.63C844.69 80.15 844.25 79.78 843.71 79.52C843.19 79.24 842.61 79.1 841.97 79.1C840.99 79.1 840.16 79.29 839.48 79.67C838.82 80.05 838.32 80.6 837.98 81.32C837.64 82.02 837.47 82.9 837.47 83.96C837.47 84.98 837.68 85.87 838.1 86.63C838.54 87.39 839.15 87.98 839.93 88.4C840.73 88.8 841.66 89 842.72 89C843.46 89 844.14 88.88 844.76 88.64C845.38 88.4 846.05 87.97 846.77 87.35L848.6 89.9C848.06 90.4 847.44 90.83 846.74 91.19C846.06 91.53 845.34 91.8 844.58 92C843.82 92.2 843.07 92.3 842.33 92.3ZM852.438 92V76.19H856.068L856.128 79.37L855.528 79.61C855.708 79.09 855.978 78.61 856.338 78.17C856.698 77.71 857.128 77.32 857.628 77C858.128 76.66 858.658 76.4 859.218 76.22C859.778 76.02 860.348 75.92 860.928 75.92C861.788 75.92 862.548 76.06 863.208 76.34C863.888 76.6 864.448 77.02 864.888 77.6C865.348 78.18 865.688 78.92 865.908 79.82L865.338 79.7L865.578 79.22C865.798 78.74 866.108 78.31 866.508 77.93C866.908 77.53 867.358 77.18 867.858 76.88C868.358 76.56 868.878 76.32 869.418 76.16C869.978 76 870.528 75.92 871.068 75.92C872.268 75.92 873.268 76.16 874.068 76.64C874.868 77.12 875.468 77.85 875.868 78.83C876.268 79.81 876.468 81.02 876.468 82.46V92H872.748V82.7C872.748 81.9 872.638 81.24 872.418 80.72C872.218 80.2 871.898 79.82 871.458 79.58C871.038 79.32 870.508 79.19 869.868 79.19C869.368 79.19 868.888 79.28 868.428 79.46C867.988 79.62 867.608 79.86 867.288 80.18C866.968 80.48 866.718 80.83 866.538 81.23C866.358 81.63 866.268 82.07 866.268 82.55V92H862.548V82.67C862.548 81.91 862.438 81.28 862.218 80.78C861.998 80.26 861.678 79.87 861.258 79.61C860.838 79.33 860.328 79.19 859.728 79.19C859.228 79.19 858.758 79.28 858.318 79.46C857.878 79.62 857.498 79.85 857.178 80.15C856.858 80.45 856.608 80.8 856.428 81.2C856.248 81.6 856.158 82.04 856.158 82.52V92H852.438ZM887.794 92.3C886.214 92.3 884.804 91.95 883.564 91.25C882.324 90.53 881.344 89.55 880.624 88.31C879.904 87.07 879.544 85.66 879.544 84.08C879.544 82.5 879.904 81.09 880.624 79.85C881.344 78.61 882.324 77.64 883.564 76.94C884.804 76.22 886.214 75.86 887.794 75.86C889.354 75.86 890.754 76.22 891.994 76.94C893.234 77.64 894.204 78.61 894.904 79.85C895.624 81.09 895.984 82.5 895.984 84.08C895.984 85.66 895.624 87.07 894.904 88.31C894.204 89.55 893.234 90.53 891.994 91.25C890.754 91.95 889.354 92.3 887.794 92.3ZM887.794 89.03C888.654 89.03 889.414 88.81 890.074 88.37C890.754 87.93 891.284 87.34 891.664 86.6C892.064 85.86 892.254 85.02 892.234 84.08C892.254 83.12 892.064 82.27 891.664 81.53C891.284 80.79 890.754 80.21 890.074 79.79C889.414 79.35 888.654 79.13 887.794 79.13C886.934 79.13 886.154 79.35 885.454 79.79C884.774 80.21 884.244 80.8 883.864 81.56C883.484 82.3 883.294 83.14 883.294 84.08C883.294 85.02 883.484 85.86 883.864 86.6C884.244 87.34 884.774 87.93 885.454 88.37C886.154 88.81 886.934 89.03 887.794 89.03ZM904.565 92.3C903.165 92.3 901.905 92.07 900.785 91.61C899.685 91.13 898.785 90.45 898.085 89.57L900.485 87.5C901.085 88.18 901.755 88.67 902.495 88.97C903.235 89.27 904.015 89.42 904.835 89.42C905.175 89.42 905.475 89.38 905.735 89.3C906.015 89.22 906.255 89.1 906.455 88.94C906.655 88.78 906.805 88.6 906.905 88.4C907.025 88.18 907.085 87.94 907.085 87.68C907.085 87.2 906.905 86.82 906.545 86.54C906.345 86.4 906.025 86.25 905.585 86.09C905.165 85.93 904.615 85.77 903.935 85.61C902.855 85.33 901.955 85.01 901.235 84.65C900.515 84.27 899.955 83.85 899.555 83.39C899.215 83.01 898.955 82.58 898.775 82.1C898.615 81.62 898.535 81.1 898.535 80.54C898.535 79.84 898.685 79.21 898.985 78.65C899.305 78.07 899.735 77.57 900.275 77.15C900.815 76.73 901.445 76.41 902.165 76.19C902.885 75.97 903.635 75.86 904.415 75.86C905.215 75.86 905.985 75.96 906.725 76.16C907.485 76.36 908.185 76.65 908.825 77.03C909.485 77.39 910.045 77.83 910.505 78.35L908.465 80.6C908.085 80.24 907.665 79.92 907.205 79.64C906.765 79.36 906.315 79.14 905.855 78.98C905.395 78.8 904.965 78.71 904.565 78.71C904.185 78.71 903.845 78.75 903.545 78.83C903.245 78.89 902.995 78.99 902.795 79.13C902.595 79.27 902.435 79.45 902.315 79.67C902.215 79.87 902.165 80.11 902.165 80.39C902.185 80.63 902.245 80.86 902.345 81.08C902.465 81.28 902.625 81.45 902.825 81.59C903.045 81.73 903.375 81.89 903.815 82.07C904.255 82.25 904.825 82.42 905.525 82.58C906.505 82.84 907.325 83.13 907.985 83.45C908.645 83.77 909.165 84.14 909.545 84.56C909.925 84.92 910.195 85.34 910.355 85.82C910.515 86.3 910.595 86.83 910.595 87.41C910.595 88.35 910.325 89.19 909.785 89.93C909.265 90.67 908.545 91.25 907.625 91.67C906.725 92.09 905.705 92.3 904.565 92.3ZM930.074 92.3C928.414 92.3 926.944 91.95 925.664 91.25C924.404 90.55 923.414 89.6 922.694 88.4C921.994 87.18 921.644 85.79 921.644 84.23C921.644 82.99 921.844 81.86 922.244 80.84C922.644 79.82 923.194 78.94 923.894 78.2C924.614 77.44 925.464 76.86 926.444 76.46C927.444 76.04 928.534 75.83 929.714 75.83C930.754 75.83 931.724 76.03 932.624 76.43C933.524 76.83 934.304 77.38 934.964 78.08C935.624 78.76 936.124 79.58 936.464 80.54C936.824 81.48 936.994 82.51 936.974 83.63L936.944 84.92H924.134L923.444 82.4H933.854L933.374 82.91V82.25C933.314 81.63 933.114 81.09 932.774 80.63C932.434 80.15 931.994 79.78 931.454 79.52C930.934 79.24 930.354 79.1 929.714 79.1C928.734 79.1 927.904 79.29 927.224 79.67C926.564 80.05 926.064 80.6 925.724 81.32C925.384 82.02 925.214 82.9 925.214 83.96C925.214 84.98 925.424 85.87 925.844 86.63C926.284 87.39 926.894 87.98 927.674 88.4C928.474 88.8 929.404 89 930.464 89C931.204 89 931.884 88.88 932.504 88.64C933.124 88.4 933.794 87.97 934.514 87.35L936.344 89.9C935.804 90.4 935.184 90.83 934.484 91.19C933.804 91.53 933.084 91.8 932.324 92C931.564 92.2 930.814 92.3 930.074 92.3ZM945.522 92.3C944.122 92.3 942.862 92.07 941.742 91.61C940.642 91.13 939.742 90.45 939.042 89.57L941.442 87.5C942.042 88.18 942.712 88.67 943.452 88.97C944.192 89.27 944.972 89.42 945.792 89.42C946.132 89.42 946.432 89.38 946.692 89.3C946.972 89.22 947.212 89.1 947.412 88.94C947.612 88.78 947.762 88.6 947.862 88.4C947.982 88.18 948.042 87.94 948.042 87.68C948.042 87.2 947.862 86.82 947.502 86.54C947.302 86.4 946.982 86.25 946.542 86.09C946.122 85.93 945.572 85.77 944.892 85.61C943.812 85.33 942.912 85.01 942.192 84.65C941.472 84.27 940.912 83.85 940.512 83.39C940.172 83.01 939.912 82.58 939.732 82.1C939.572 81.62 939.492 81.1 939.492 80.54C939.492 79.84 939.642 79.21 939.942 78.65C940.262 78.07 940.692 77.57 941.232 77.15C941.772 76.73 942.402 76.41 943.122 76.19C943.842 75.97 944.592 75.86 945.372 75.86C946.172 75.86 946.942 75.96 947.682 76.16C948.442 76.36 949.142 76.65 949.782 77.03C950.442 77.39 951.002 77.83 951.462 78.35L949.422 80.6C949.042 80.24 948.622 79.92 948.162 79.64C947.722 79.36 947.272 79.14 946.812 78.98C946.352 78.8 945.922 78.71 945.522 78.71C945.142 78.71 944.802 78.75 944.502 78.83C944.202 78.89 943.952 78.99 943.752 79.13C943.552 79.27 943.392 79.45 943.272 79.67C943.172 79.87 943.122 80.11 943.122 80.39C943.142 80.63 943.202 80.86 943.302 81.08C943.422 81.28 943.582 81.45 943.782 81.59C944.002 81.73 944.332 81.89 944.772 82.07C945.212 82.25 945.782 82.42 946.482 82.58C947.462 82.84 948.282 83.13 948.942 83.45C949.602 83.77 950.122 84.14 950.502 84.56C950.882 84.92 951.152 85.34 951.312 85.82C951.472 86.3 951.552 86.83 951.552 87.41C951.552 88.35 951.282 89.19 950.742 89.93C950.222 90.67 949.502 91.25 948.582 91.67C947.682 92.09 946.662 92.3 945.522 92.3ZM963.621 98.6V76.19H967.251L967.311 79.79L966.681 79.52C966.801 78.9 967.141 78.32 967.701 77.78C968.261 77.22 968.941 76.77 969.741 76.43C970.561 76.09 971.411 75.92 972.291 75.92C973.691 75.92 974.931 76.27 976.011 76.97C977.111 77.67 977.971 78.63 978.591 79.85C979.231 81.07 979.551 82.48 979.551 84.08C979.551 85.66 979.231 87.07 978.591 88.31C977.971 89.53 977.111 90.5 976.011 91.22C974.931 91.92 973.711 92.27 972.351 92.27C971.431 92.27 970.541 92.09 969.681 91.73C968.841 91.37 968.121 90.9 967.521 90.32C966.941 89.74 966.581 89.13 966.441 88.49L967.341 88.07V98.6H963.621ZM971.601 89C972.441 89 973.191 88.79 973.851 88.37C974.511 87.95 975.021 87.37 975.381 86.63C975.761 85.89 975.951 85.04 975.951 84.08C975.951 83.12 975.771 82.28 975.411 81.56C975.051 80.82 974.541 80.24 973.881 79.82C973.221 79.4 972.461 79.19 971.601 79.19C970.721 79.19 969.951 79.4 969.291 79.82C968.651 80.22 968.141 80.79 967.761 81.53C967.381 82.27 967.191 83.12 967.191 84.08C967.191 85.04 967.381 85.89 967.761 86.63C968.141 87.37 968.651 87.95 969.291 88.37C969.951 88.79 970.721 89 971.601 89ZM988.81 92.3C987.51 92.3 986.33 91.94 985.27 91.22C984.21 90.5 983.36 89.52 982.72 88.28C982.08 87.04 981.76 85.63 981.76 84.05C981.76 82.47 982.08 81.06 982.72 79.82C983.36 78.58 984.23 77.61 985.33 76.91C986.43 76.21 987.67 75.86 989.05 75.86C989.85 75.86 990.58 75.98 991.24 76.22C991.9 76.44 992.48 76.76 992.98 77.18C993.48 77.6 993.89 78.08 994.21 78.62C994.55 79.16 994.78 79.74 994.9 80.36L994.09 80.15V76.19H997.81V92H994.06V88.22L994.93 88.07C994.79 88.61 994.53 89.14 994.15 89.66C993.79 90.16 993.33 90.61 992.77 91.01C992.23 91.39 991.62 91.7 990.94 91.94C990.28 92.18 989.57 92.3 988.81 92.3ZM989.83 89.03C990.69 89.03 991.45 88.82 992.11 88.4C992.77 87.98 993.28 87.4 993.64 86.66C994.02 85.9 994.21 85.03 994.21 84.05C994.21 83.09 994.02 82.24 993.64 81.5C993.28 80.76 992.77 80.18 992.11 79.76C991.45 79.34 990.69 79.13 989.83 79.13C988.97 79.13 988.21 79.34 987.55 79.76C986.91 80.18 986.41 80.76 986.05 81.5C985.69 82.24 985.51 83.09 985.51 84.05C985.51 85.03 985.69 85.9 986.05 86.66C986.41 87.4 986.91 87.98 987.55 88.4C988.21 88.82 988.97 89.03 989.83 89.03ZM1002.09 92V76.19H1005.72L1005.78 81.23L1005.27 80.09C1005.49 79.29 1005.87 78.57 1006.41 77.93C1006.95 77.29 1007.57 76.79 1008.27 76.43C1008.99 76.05 1009.74 75.86 1010.52 75.86C1010.86 75.86 1011.18 75.89 1011.48 75.95C1011.8 76.01 1012.06 76.08 1012.26 76.16L1011.27 80.21C1011.05 80.09 1010.78 79.99 1010.46 79.91C1010.14 79.83 1009.82 79.79 1009.5 79.79C1009 79.79 1008.52 79.89 1008.06 80.09C1007.62 80.27 1007.23 80.53 1006.89 80.87C1006.55 81.21 1006.28 81.61 1006.08 82.07C1005.9 82.51 1005.81 83.01 1005.81 83.57V92H1002.09ZM1020.01 92.3C1018.71 92.3 1017.53 91.94 1016.47 91.22C1015.41 90.5 1014.56 89.52 1013.92 88.28C1013.28 87.04 1012.96 85.63 1012.96 84.05C1012.96 82.47 1013.28 81.06 1013.92 79.82C1014.56 78.58 1015.43 77.61 1016.53 76.91C1017.63 76.21 1018.87 75.86 1020.25 75.86C1021.05 75.86 1021.78 75.98 1022.44 76.22C1023.1 76.44 1023.68 76.76 1024.18 77.18C1024.68 77.6 1025.09 78.08 1025.41 78.62C1025.75 79.16 1025.98 79.74 1026.1 80.36L1025.29 80.15V76.19H1029.01V92H1025.26V88.22L1026.13 88.07C1025.99 88.61 1025.73 89.14 1025.35 89.66C1024.99 90.16 1024.53 90.61 1023.97 91.01C1023.43 91.39 1022.82 91.7 1022.14 91.94C1021.48 92.18 1020.77 92.3 1020.01 92.3ZM1021.03 89.03C1021.89 89.03 1022.65 88.82 1023.31 88.4C1023.97 87.98 1024.48 87.4 1024.84 86.66C1025.22 85.9 1025.41 85.03 1025.41 84.05C1025.41 83.09 1025.22 82.24 1024.84 81.5C1024.48 80.76 1023.97 80.18 1023.31 79.76C1022.65 79.34 1021.89 79.13 1021.03 79.13C1020.17 79.13 1019.41 79.34 1018.75 79.76C1018.11 80.18 1017.61 80.76 1017.25 81.5C1016.89 82.24 1016.71 83.09 1016.71 84.05C1016.71 85.03 1016.89 85.9 1017.25 86.66C1017.61 87.4 1018.11 87.98 1018.75 88.4C1019.41 88.82 1020.17 89.03 1021.03 89.03ZM1048.89 92.3C1047.41 92.3 1046.08 91.94 1044.9 91.22C1043.72 90.5 1042.79 89.52 1042.11 88.28C1041.43 87.04 1041.09 85.64 1041.09 84.08C1041.09 82.52 1041.43 81.12 1042.11 79.88C1042.79 78.64 1043.72 77.66 1044.9 76.94C1046.08 76.22 1047.41 75.86 1048.89 75.86C1050.31 75.86 1051.6 76.13 1052.76 76.67C1053.92 77.21 1054.82 77.96 1055.46 78.92L1053.42 81.38C1053.12 80.96 1052.74 80.58 1052.28 80.24C1051.82 79.9 1051.33 79.63 1050.81 79.43C1050.29 79.23 1049.77 79.13 1049.25 79.13C1048.37 79.13 1047.58 79.35 1046.88 79.79C1046.2 80.21 1045.66 80.8 1045.26 81.56C1044.86 82.3 1044.66 83.14 1044.66 84.08C1044.66 85.02 1044.86 85.86 1045.26 86.6C1045.68 87.34 1046.24 87.93 1046.94 88.37C1047.64 88.81 1048.42 89.03 1049.28 89.03C1049.8 89.03 1050.3 88.95 1050.78 88.79C1051.28 88.61 1051.75 88.36 1052.19 88.04C1052.63 87.72 1053.04 87.32 1053.42 86.84L1055.46 89.33C1054.78 90.21 1053.84 90.93 1052.64 91.49C1051.46 92.03 1050.21 92.3 1048.89 92.3ZM1063.77 92.3C1062.63 92.3 1061.64 92.05 1060.8 91.55C1059.96 91.03 1059.32 90.3 1058.88 89.36C1058.44 88.4 1058.22 87.26 1058.22 85.94V76.19H1061.91V85.16C1061.91 86 1062.04 86.72 1062.3 87.32C1062.56 87.9 1062.94 88.35 1063.44 88.67C1063.94 88.99 1064.54 89.15 1065.24 89.15C1065.76 89.15 1066.23 89.07 1066.65 88.91C1067.09 88.73 1067.47 88.49 1067.79 88.19C1068.11 87.87 1068.36 87.5 1068.54 87.08C1068.72 86.64 1068.81 86.17 1068.81 85.67V76.19H1072.5V92H1068.9L1068.84 88.7L1069.5 88.34C1069.26 89.1 1068.85 89.78 1068.27 90.38C1067.71 90.96 1067.04 91.43 1066.26 91.79C1065.48 92.13 1064.65 92.3 1063.77 92.3ZM1077.24 92V76.19H1080.93V92H1077.24ZM1079.04 72.83C1078.3 72.83 1077.72 72.65 1077.3 72.29C1076.9 71.91 1076.7 71.38 1076.7 70.7C1076.7 70.06 1076.91 69.54 1077.33 69.14C1077.75 68.74 1078.32 68.54 1079.04 68.54C1079.8 68.54 1080.38 68.73 1080.78 69.11C1081.2 69.47 1081.41 70 1081.41 70.7C1081.41 71.32 1081.2 71.83 1080.78 72.23C1080.36 72.63 1079.78 72.83 1079.04 72.83ZM1091.97 92.3C1090.57 92.3 1089.31 91.95 1088.19 91.25C1087.09 90.53 1086.21 89.56 1085.55 88.34C1084.91 87.1 1084.59 85.68 1084.59 84.08C1084.59 82.5 1084.91 81.09 1085.55 79.85C1086.19 78.61 1087.06 77.64 1088.16 76.94C1089.28 76.22 1090.54 75.86 1091.94 75.86C1092.7 75.86 1093.43 75.98 1094.13 76.22C1094.85 76.46 1095.49 76.79 1096.05 77.21C1096.61 77.61 1097.05 78.06 1097.37 78.56C1097.71 79.06 1097.9 79.58 1097.94 80.12L1096.95 80.24V69.8H1100.64V92H1097.07L1096.98 88.28L1097.7 88.34C1097.68 88.84 1097.5 89.32 1097.16 89.78C1096.84 90.24 1096.42 90.66 1095.9 91.04C1095.38 91.42 1094.77 91.73 1094.07 91.97C1093.39 92.19 1092.69 92.3 1091.97 92.3ZM1092.69 89.18C1093.55 89.18 1094.31 88.96 1094.97 88.52C1095.63 88.08 1096.14 87.48 1096.5 86.72C1096.88 85.96 1097.07 85.08 1097.07 84.08C1097.07 83.1 1096.88 82.23 1096.5 81.47C1096.14 80.69 1095.63 80.09 1094.97 79.67C1094.31 79.23 1093.55 79.01 1092.69 79.01C1091.83 79.01 1091.07 79.23 1090.41 79.67C1089.75 80.09 1089.23 80.69 1088.85 81.47C1088.49 82.23 1088.31 83.1 1088.31 84.08C1088.31 85.08 1088.49 85.96 1088.85 86.72C1089.23 87.48 1089.75 88.08 1090.41 88.52C1091.07 88.96 1091.83 89.18 1092.69 89.18ZM1110.8 92.3C1109.5 92.3 1108.32 91.94 1107.26 91.22C1106.2 90.5 1105.35 89.52 1104.71 88.28C1104.07 87.04 1103.75 85.63 1103.75 84.05C1103.75 82.47 1104.07 81.06 1104.71 79.82C1105.35 78.58 1106.22 77.61 1107.32 76.91C1108.42 76.21 1109.66 75.86 1111.04 75.86C1111.84 75.86 1112.57 75.98 1113.23 76.22C1113.89 76.44 1114.47 76.76 1114.97 77.18C1115.47 77.6 1115.88 78.08 1116.2 78.62C1116.54 79.16 1116.77 79.74 1116.89 80.36L1116.08 80.15V76.19H1119.8V92H1116.05V88.22L1116.92 88.07C1116.78 88.61 1116.52 89.14 1116.14 89.66C1115.78 90.16 1115.32 90.61 1114.76 91.01C1114.22 91.39 1113.61 91.7 1112.93 91.94C1112.27 92.18 1111.56 92.3 1110.8 92.3ZM1111.82 89.03C1112.68 89.03 1113.44 88.82 1114.1 88.4C1114.76 87.98 1115.27 87.4 1115.63 86.66C1116.01 85.9 1116.2 85.03 1116.2 84.05C1116.2 83.09 1116.01 82.24 1115.63 81.5C1115.27 80.76 1114.76 80.18 1114.1 79.76C1113.44 79.34 1112.68 79.13 1111.82 79.13C1110.96 79.13 1110.2 79.34 1109.54 79.76C1108.9 80.18 1108.4 80.76 1108.04 81.5C1107.68 82.24 1107.5 83.09 1107.5 84.05C1107.5 85.03 1107.68 85.9 1108.04 86.66C1108.4 87.4 1108.9 87.98 1109.54 88.4C1110.2 88.82 1110.96 89.03 1111.82 89.03ZM1124.08 92V76.19H1127.71L1127.77 81.23L1127.26 80.09C1127.48 79.29 1127.86 78.57 1128.4 77.93C1128.94 77.29 1129.56 76.79 1130.26 76.43C1130.98 76.05 1131.73 75.86 1132.51 75.86C1132.85 75.86 1133.17 75.89 1133.47 75.95C1133.79 76.01 1134.05 76.08 1134.25 76.16L1133.26 80.21C1133.04 80.09 1132.77 79.99 1132.45 79.91C1132.13 79.83 1131.81 79.79 1131.49 79.79C1130.99 79.79 1130.51 79.89 1130.05 80.09C1129.61 80.27 1129.22 80.53 1128.88 80.87C1128.54 81.21 1128.27 81.61 1128.07 82.07C1127.89 82.51 1127.8 83.01 1127.8 83.57V92H1124.08ZM1150.81 92.3C1149.41 92.3 1148.15 92.07 1147.03 91.61C1145.93 91.13 1145.03 90.45 1144.33 89.57L1146.73 87.5C1147.33 88.18 1148 88.67 1148.74 88.97C1149.48 89.27 1150.26 89.42 1151.08 89.42C1151.42 89.42 1151.72 89.38 1151.98 89.3C1152.26 89.22 1152.5 89.1 1152.7 88.94C1152.9 88.78 1153.05 88.6 1153.15 88.4C1153.27 88.18 1153.33 87.94 1153.33 87.68C1153.33 87.2 1153.15 86.82 1152.79 86.54C1152.59 86.4 1152.27 86.25 1151.83 86.09C1151.41 85.93 1150.86 85.77 1150.18 85.61C1149.1 85.33 1148.2 85.01 1147.48 84.65C1146.76 84.27 1146.2 83.85 1145.8 83.39C1145.46 83.01 1145.2 82.58 1145.02 82.1C1144.86 81.62 1144.78 81.1 1144.78 80.54C1144.78 79.84 1144.93 79.21 1145.23 78.65C1145.55 78.07 1145.98 77.57 1146.52 77.15C1147.06 76.73 1147.69 76.41 1148.41 76.19C1149.13 75.97 1149.88 75.86 1150.66 75.86C1151.46 75.86 1152.23 75.96 1152.97 76.16C1153.73 76.36 1154.43 76.65 1155.07 77.03C1155.73 77.39 1156.29 77.83 1156.75 78.35L1154.71 80.6C1154.33 80.24 1153.91 79.92 1153.45 79.64C1153.01 79.36 1152.56 79.14 1152.1 78.98C1151.64 78.8 1151.21 78.71 1150.81 78.71C1150.43 78.71 1150.09 78.75 1149.79 78.83C1149.49 78.89 1149.24 78.99 1149.04 79.13C1148.84 79.27 1148.68 79.45 1148.56 79.67C1148.46 79.87 1148.41 80.11 1148.41 80.39C1148.43 80.63 1148.49 80.86 1148.59 81.08C1148.71 81.28 1148.87 81.45 1149.07 81.59C1149.29 81.73 1149.62 81.89 1150.06 82.07C1150.5 82.25 1151.07 82.42 1151.77 82.58C1152.75 82.84 1153.57 83.13 1154.23 83.45C1154.89 83.77 1155.41 84.14 1155.79 84.56C1156.17 84.92 1156.44 85.34 1156.6 85.82C1156.76 86.3 1156.84 86.83 1156.84 87.41C1156.84 88.35 1156.57 89.19 1156.03 89.93C1155.51 90.67 1154.79 91.25 1153.87 91.67C1152.97 92.09 1151.95 92.3 1150.81 92.3ZM1165.58 92.3C1164.44 92.3 1163.45 92.05 1162.61 91.55C1161.77 91.03 1161.13 90.3 1160.69 89.36C1160.25 88.4 1160.03 87.26 1160.03 85.94V76.19H1163.72V85.16C1163.72 86 1163.85 86.72 1164.11 87.32C1164.37 87.9 1164.75 88.35 1165.25 88.67C1165.75 88.99 1166.35 89.15 1167.05 89.15C1167.57 89.15 1168.04 89.07 1168.46 88.91C1168.9 88.73 1169.28 88.49 1169.6 88.19C1169.92 87.87 1170.17 87.5 1170.35 87.08C1170.53 86.64 1170.62 86.17 1170.62 85.67V76.19H1174.31V92H1170.71L1170.65 88.7L1171.31 88.34C1171.07 89.1 1170.66 89.78 1170.08 90.38C1169.52 90.96 1168.85 91.43 1168.07 91.79C1167.29 92.13 1166.46 92.3 1165.58 92.3ZM1192.73 92.3C1191.33 92.3 1190.07 92.07 1188.95 91.61C1187.85 91.13 1186.95 90.45 1186.25 89.57L1188.65 87.5C1189.25 88.18 1189.92 88.67 1190.66 88.97C1191.4 89.27 1192.18 89.42 1193 89.42C1193.34 89.42 1193.64 89.38 1193.9 89.3C1194.18 89.22 1194.42 89.1 1194.62 88.94C1194.82 88.78 1194.97 88.6 1195.07 88.4C1195.19 88.18 1195.25 87.94 1195.25 87.68C1195.25 87.2 1195.07 86.82 1194.71 86.54C1194.51 86.4 1194.19 86.25 1193.75 86.09C1193.33 85.93 1192.78 85.77 1192.1 85.61C1191.02 85.33 1190.12 85.01 1189.4 84.65C1188.68 84.27 1188.12 83.85 1187.72 83.39C1187.38 83.01 1187.12 82.58 1186.94 82.1C1186.78 81.62 1186.7 81.1 1186.7 80.54C1186.7 79.84 1186.85 79.21 1187.15 78.65C1187.47 78.07 1187.9 77.57 1188.44 77.15C1188.98 76.73 1189.61 76.41 1190.33 76.19C1191.05 75.97 1191.8 75.86 1192.58 75.86C1193.38 75.86 1194.15 75.96 1194.89 76.16C1195.65 76.36 1196.35 76.65 1196.99 77.03C1197.65 77.39 1198.21 77.83 1198.67 78.35L1196.63 80.6C1196.25 80.24 1195.83 79.92 1195.37 79.64C1194.93 79.36 1194.48 79.14 1194.02 78.98C1193.56 78.8 1193.13 78.71 1192.73 78.71C1192.35 78.71 1192.01 78.75 1191.71 78.83C1191.41 78.89 1191.16 78.99 1190.96 79.13C1190.76 79.27 1190.6 79.45 1190.48 79.67C1190.38 79.87 1190.33 80.11 1190.33 80.39C1190.35 80.63 1190.41 80.86 1190.51 81.08C1190.63 81.28 1190.79 81.45 1190.99 81.59C1191.21 81.73 1191.54 81.89 1191.98 82.07C1192.42 82.25 1192.99 82.42 1193.69 82.58C1194.67 82.84 1195.49 83.13 1196.15 83.45C1196.81 83.77 1197.33 84.14 1197.71 84.56C1198.09 84.92 1198.36 85.34 1198.52 85.82C1198.68 86.3 1198.76 86.83 1198.76 87.41C1198.76 88.35 1198.49 89.19 1197.95 89.93C1197.43 90.67 1196.71 91.25 1195.79 91.67C1194.89 92.09 1193.87 92.3 1192.73 92.3ZM1209.24 92.3C1207.66 92.3 1206.25 91.95 1205.01 91.25C1203.77 90.53 1202.79 89.55 1202.07 88.31C1201.35 87.07 1200.99 85.66 1200.99 84.08C1200.99 82.5 1201.35 81.09 1202.07 79.85C1202.79 78.61 1203.77 77.64 1205.01 76.94C1206.25 76.22 1207.66 75.86 1209.24 75.86C1210.8 75.86 1212.2 76.22 1213.44 76.94C1214.68 77.64 1215.65 78.61 1216.35 79.85C1217.07 81.09 1217.43 82.5 1217.43 84.08C1217.43 85.66 1217.07 87.07 1216.35 88.31C1215.65 89.55 1214.68 90.53 1213.44 91.25C1212.2 91.95 1210.8 92.3 1209.24 92.3ZM1209.24 89.03C1210.1 89.03 1210.86 88.81 1211.52 88.37C1212.2 87.93 1212.73 87.34 1213.11 86.6C1213.51 85.86 1213.7 85.02 1213.68 84.08C1213.7 83.12 1213.51 82.27 1213.11 81.53C1212.73 80.79 1212.2 80.21 1211.52 79.79C1210.86 79.35 1210.1 79.13 1209.24 79.13C1208.38 79.13 1207.6 79.35 1206.9 79.79C1206.22 80.21 1205.69 80.8 1205.31 81.56C1204.93 82.3 1204.74 83.14 1204.74 84.08C1204.74 85.02 1204.93 85.86 1205.31 86.6C1205.69 87.34 1206.22 87.93 1206.9 88.37C1207.6 88.81 1208.38 89.03 1209.24 89.03ZM1220.73 92V76.19H1224.33L1224.39 79.43L1223.7 79.79C1223.9 79.07 1224.29 78.42 1224.87 77.84C1225.45 77.24 1226.14 76.76 1226.94 76.4C1227.74 76.04 1228.56 75.86 1229.4 75.86C1230.6 75.86 1231.6 76.1 1232.4 76.58C1233.22 77.06 1233.83 77.78 1234.23 78.74C1234.65 79.7 1234.86 80.9 1234.86 82.34V92H1231.17V82.61C1231.17 81.81 1231.06 81.15 1230.84 80.63C1230.62 80.09 1230.28 79.7 1229.82 79.46C1229.36 79.2 1228.8 79.08 1228.14 79.1C1227.6 79.1 1227.1 79.19 1226.64 79.37C1226.2 79.53 1225.81 79.77 1225.47 80.09C1225.15 80.39 1224.89 80.74 1224.69 81.14C1224.51 81.54 1224.42 81.98 1224.42 82.46V92H1222.59C1222.23 92 1221.89 92 1221.57 92C1221.27 92 1220.99 92 1220.73 92ZM1239.01 92V76.19H1242.64L1242.7 81.23L1242.19 80.09C1242.41 79.29 1242.79 78.57 1243.33 77.93C1243.87 77.29 1244.49 76.79 1245.19 76.43C1245.91 76.05 1246.66 75.86 1247.44 75.86C1247.78 75.86 1248.1 75.89 1248.4 75.95C1248.72 76.01 1248.98 76.08 1249.18 76.16L1248.19 80.21C1247.97 80.09 1247.7 79.99 1247.38 79.91C1247.06 79.83 1246.74 79.79 1246.42 79.79C1245.92 79.79 1245.44 79.89 1244.98 80.09C1244.54 80.27 1244.15 80.53 1243.81 80.87C1243.47 81.21 1243.2 81.61 1243 82.07C1242.82 82.51 1242.73 83.01 1242.73 83.57V92H1239.01ZM1252.06 92V76.19H1255.75V92H1252.06ZM1253.86 72.83C1253.12 72.83 1252.54 72.65 1252.12 72.29C1251.72 71.91 1251.52 71.38 1251.52 70.7C1251.52 70.06 1251.73 69.54 1252.15 69.14C1252.57 68.74 1253.14 68.54 1253.86 68.54C1254.62 68.54 1255.2 68.73 1255.6 69.11C1256.02 69.47 1256.23 70 1256.23 70.7C1256.23 71.32 1256.02 71.83 1255.6 72.23C1255.18 72.63 1254.6 72.83 1253.86 72.83ZM1265.71 92.3C1264.31 92.3 1263.05 92.07 1261.93 91.61C1260.83 91.13 1259.93 90.45 1259.23 89.57L1261.63 87.5C1262.23 88.18 1262.9 88.67 1263.64 88.97C1264.38 89.27 1265.16 89.42 1265.98 89.42C1266.32 89.42 1266.62 89.38 1266.88 89.3C1267.16 89.22 1267.4 89.1 1267.6 88.94C1267.8 88.78 1267.95 88.6 1268.05 88.4C1268.17 88.18 1268.23 87.94 1268.23 87.68C1268.23 87.2 1268.05 86.82 1267.69 86.54C1267.49 86.4 1267.17 86.25 1266.73 86.09C1266.31 85.93 1265.76 85.77 1265.08 85.61C1264 85.33 1263.1 85.01 1262.38 84.65C1261.66 84.27 1261.1 83.85 1260.7 83.39C1260.36 83.01 1260.1 82.58 1259.92 82.1C1259.76 81.62 1259.68 81.1 1259.68 80.54C1259.68 79.84 1259.83 79.21 1260.13 78.65C1260.45 78.07 1260.88 77.57 1261.42 77.15C1261.96 76.73 1262.59 76.41 1263.31 76.19C1264.03 75.97 1264.78 75.86 1265.56 75.86C1266.36 75.86 1267.13 75.96 1267.87 76.16C1268.63 76.36 1269.33 76.65 1269.97 77.03C1270.63 77.39 1271.19 77.83 1271.65 78.35L1269.61 80.6C1269.23 80.24 1268.81 79.92 1268.35 79.64C1267.91 79.36 1267.46 79.14 1267 78.98C1266.54 78.8 1266.11 78.71 1265.71 78.71C1265.33 78.71 1264.99 78.75 1264.69 78.83C1264.39 78.89 1264.14 78.99 1263.94 79.13C1263.74 79.27 1263.58 79.45 1263.46 79.67C1263.36 79.87 1263.31 80.11 1263.31 80.39C1263.33 80.63 1263.39 80.86 1263.49 81.08C1263.61 81.28 1263.77 81.45 1263.97 81.59C1264.19 81.73 1264.52 81.89 1264.96 82.07C1265.4 82.25 1265.97 82.42 1266.67 82.58C1267.65 82.84 1268.47 83.13 1269.13 83.45C1269.79 83.77 1270.31 84.14 1270.69 84.56C1271.07 84.92 1271.34 85.34 1271.5 85.82C1271.66 86.3 1271.74 86.83 1271.74 87.41C1271.74 88.35 1271.47 89.19 1270.93 89.93C1270.41 90.67 1269.69 91.25 1268.77 91.67C1267.87 92.09 1266.85 92.3 1265.71 92.3ZM1280.96 92.3C1279.66 92.3 1278.48 91.94 1277.42 91.22C1276.36 90.5 1275.51 89.52 1274.87 88.28C1274.23 87.04 1273.91 85.63 1273.91 84.05C1273.91 82.47 1274.23 81.06 1274.87 79.82C1275.51 78.58 1276.38 77.61 1277.48 76.91C1278.58 76.21 1279.82 75.86 1281.2 75.86C1282 75.86 1282.73 75.98 1283.39 76.22C1284.05 76.44 1284.63 76.76 1285.13 77.18C1285.63 77.6 1286.04 78.08 1286.36 78.62C1286.7 79.16 1286.93 79.74 1287.05 80.36L1286.24 80.15V76.19H1289.96V92H1286.21V88.22L1287.08 88.07C1286.94 88.61 1286.68 89.14 1286.3 89.66C1285.94 90.16 1285.48 90.61 1284.92 91.01C1284.38 91.39 1283.77 91.7 1283.09 91.94C1282.43 92.18 1281.72 92.3 1280.96 92.3ZM1281.98 89.03C1282.84 89.03 1283.6 88.82 1284.26 88.4C1284.92 87.98 1285.43 87.4 1285.79 86.66C1286.17 85.9 1286.36 85.03 1286.36 84.05C1286.36 83.09 1286.17 82.24 1285.79 81.5C1285.43 80.76 1284.92 80.18 1284.26 79.76C1283.6 79.34 1282.84 79.13 1281.98 79.13C1281.12 79.13 1280.36 79.34 1279.7 79.76C1279.06 80.18 1278.56 80.76 1278.2 81.5C1277.84 82.24 1277.66 83.09 1277.66 84.05C1277.66 85.03 1277.84 85.9 1278.2 86.66C1278.56 87.4 1279.06 87.98 1279.7 88.4C1280.36 88.82 1281.12 89.03 1281.98 89.03Z" fill="white"/>
</svg>
