<svg width="1900" height="159" viewBox="0 0 1900 159" fill="none" xmlns="http://www.w3.org/2000/svg">
<rect width="1900" height="159" fill="#0081FD"/>
<path d="M345.82 76V55H349.72V72.4H359.41V76H345.82ZM368.591 76.3C367.291 76.3 366.111 75.94 365.051 75.22C363.991 74.5 363.141 73.52 362.501 72.28C361.861 71.04 361.541 69.63 361.541 68.05C361.541 66.47 361.861 65.06 362.501 63.82C363.141 62.58 364.011 61.61 365.111 60.91C366.211 60.21 367.451 59.86 368.831 59.86C369.631 59.86 370.361 59.98 371.021 60.22C371.681 60.44 372.261 60.76 372.761 61.18C373.261 61.6 373.671 62.08 373.991 62.62C374.331 63.16 374.561 63.74 374.681 64.36L373.871 64.15V60.19H377.591V76H373.841V72.22L374.711 72.07C374.571 72.61 374.311 73.14 373.931 73.66C373.571 74.16 373.111 74.61 372.551 75.01C372.011 75.39 371.401 75.7 370.721 75.94C370.061 76.18 369.351 76.3 368.591 76.3ZM369.611 73.03C370.471 73.03 371.231 72.82 371.891 72.4C372.551 71.98 373.061 71.4 373.421 70.66C373.801 69.9 373.991 69.03 373.991 68.05C373.991 67.09 373.801 66.24 373.421 65.5C373.061 64.76 372.551 64.18 371.891 63.76C371.231 63.34 370.471 63.13 369.611 63.13C368.751 63.13 367.991 63.34 367.331 63.76C366.691 64.18 366.191 64.76 365.831 65.5C365.471 66.24 365.291 67.09 365.291 68.05C365.291 69.03 365.471 69.9 365.831 70.66C366.191 71.4 366.691 71.98 367.331 72.4C367.991 72.82 368.751 73.03 369.611 73.03ZM397.467 76.3C395.987 76.3 394.657 75.94 393.477 75.22C392.297 74.5 391.367 73.52 390.687 72.28C390.007 71.04 389.667 69.64 389.667 68.08C389.667 66.52 390.007 65.12 390.687 63.88C391.367 62.64 392.297 61.66 393.477 60.94C394.657 60.22 395.987 59.86 397.467 59.86C398.887 59.86 400.177 60.13 401.337 60.67C402.497 61.21 403.397 61.96 404.037 62.92L401.997 65.38C401.697 64.96 401.317 64.58 400.857 64.24C400.397 63.9 399.907 63.63 399.387 63.43C398.867 63.23 398.347 63.13 397.827 63.13C396.947 63.13 396.157 63.35 395.457 63.79C394.777 64.21 394.237 64.8 393.837 65.56C393.437 66.3 393.237 67.14 393.237 68.08C393.237 69.02 393.437 69.86 393.837 70.6C394.257 71.34 394.817 71.93 395.517 72.37C396.217 72.81 396.997 73.03 397.857 73.03C398.377 73.03 398.877 72.95 399.357 72.79C399.857 72.61 400.327 72.36 400.767 72.04C401.207 71.72 401.617 71.32 401.997 70.84L404.037 73.33C403.357 74.21 402.417 74.93 401.217 75.49C400.037 76.03 398.787 76.3 397.467 76.3ZM406.889 76V53.8H410.609V76H406.889ZM420.622 76.3C419.322 76.3 418.142 75.94 417.082 75.22C416.022 74.5 415.172 73.52 414.532 72.28C413.892 71.04 413.572 69.63 413.572 68.05C413.572 66.47 413.892 65.06 414.532 63.82C415.172 62.58 416.042 61.61 417.142 60.91C418.242 60.21 419.482 59.86 420.862 59.86C421.662 59.86 422.392 59.98 423.052 60.22C423.712 60.44 424.292 60.76 424.792 61.18C425.292 61.6 425.702 62.08 426.022 62.62C426.362 63.16 426.592 63.74 426.712 64.36L425.902 64.15V60.19H429.622V76H425.872V72.22L426.742 72.07C426.602 72.61 426.342 73.14 425.962 73.66C425.602 74.16 425.142 74.61 424.582 75.01C424.042 75.39 423.432 75.7 422.752 75.94C422.092 76.18 421.382 76.3 420.622 76.3ZM421.642 73.03C422.502 73.03 423.262 72.82 423.922 72.4C424.582 71.98 425.092 71.4 425.452 70.66C425.832 69.9 426.022 69.03 426.022 68.05C426.022 67.09 425.832 66.24 425.452 65.5C425.092 64.76 424.582 64.18 423.922 63.76C423.262 63.34 422.502 63.13 421.642 63.13C420.782 63.13 420.022 63.34 419.362 63.76C418.722 64.18 418.222 64.76 417.862 65.5C417.502 66.24 417.322 67.09 417.322 68.05C417.322 69.03 417.502 69.9 417.862 70.66C418.222 71.4 418.722 71.98 419.362 72.4C420.022 72.82 420.782 73.03 421.642 73.03ZM438.619 76L431.959 60.19H435.979L440.479 72.01L439.699 72.22L444.439 60.19H448.369L441.379 76H438.619ZM458.039 76.3C456.379 76.3 454.909 75.95 453.629 75.25C452.369 74.55 451.379 73.6 450.659 72.4C449.959 71.18 449.609 69.79 449.609 68.23C449.609 66.99 449.809 65.86 450.209 64.84C450.609 63.82 451.159 62.94 451.859 62.2C452.579 61.44 453.429 60.86 454.409 60.46C455.409 60.04 456.499 59.83 457.679 59.83C458.719 59.83 459.689 60.03 460.589 60.43C461.489 60.83 462.269 61.38 462.929 62.08C463.589 62.76 464.089 63.58 464.429 64.54C464.789 65.48 464.959 66.51 464.939 67.63L464.909 68.92H452.099L451.409 66.4H461.819L461.339 66.91V66.25C461.279 65.63 461.079 65.09 460.739 64.63C460.399 64.15 459.959 63.78 459.419 63.52C458.899 63.24 458.319 63.1 457.679 63.1C456.699 63.1 455.869 63.29 455.189 63.67C454.529 64.05 454.029 64.6 453.689 65.32C453.349 66.02 453.179 66.9 453.179 67.96C453.179 68.98 453.389 69.87 453.809 70.63C454.249 71.39 454.859 71.98 455.639 72.4C456.439 72.8 457.369 73 458.429 73C459.169 73 459.849 72.88 460.469 72.64C461.089 72.4 461.759 71.97 462.479 71.35L464.309 73.9C463.769 74.4 463.149 74.83 462.449 75.19C461.769 75.53 461.049 75.8 460.289 76C459.529 76.2 458.779 76.3 458.039 76.3ZM477.025 82.6V60.19H480.655L480.715 63.79L480.085 63.52C480.205 62.9 480.545 62.32 481.105 61.78C481.665 61.22 482.345 60.77 483.145 60.43C483.965 60.09 484.815 59.92 485.695 59.92C487.095 59.92 488.335 60.27 489.415 60.97C490.515 61.67 491.375 62.63 491.995 63.85C492.635 65.07 492.955 66.48 492.955 68.08C492.955 69.66 492.635 71.07 491.995 72.31C491.375 73.53 490.515 74.5 489.415 75.22C488.335 75.92 487.115 76.27 485.755 76.27C484.835 76.27 483.945 76.09 483.085 75.73C482.245 75.37 481.525 74.9 480.925 74.32C480.345 73.74 479.985 73.13 479.845 72.49L480.745 72.07V82.6H477.025ZM485.005 73C485.845 73 486.595 72.79 487.255 72.37C487.915 71.95 488.425 71.37 488.785 70.63C489.165 69.89 489.355 69.04 489.355 68.08C489.355 67.12 489.175 66.28 488.815 65.56C488.455 64.82 487.945 64.24 487.285 63.82C486.625 63.4 485.865 63.19 485.005 63.19C484.125 63.19 483.355 63.4 482.695 63.82C482.055 64.22 481.545 64.79 481.165 65.53C480.785 66.27 480.595 67.12 480.595 68.08C480.595 69.04 480.785 69.89 481.165 70.63C481.545 71.37 482.055 71.95 482.695 72.37C483.355 72.79 484.125 73 485.005 73ZM502.214 76.3C500.914 76.3 499.734 75.94 498.674 75.22C497.614 74.5 496.764 73.52 496.124 72.28C495.484 71.04 495.164 69.63 495.164 68.05C495.164 66.47 495.484 65.06 496.124 63.82C496.764 62.58 497.634 61.61 498.734 60.91C499.834 60.21 501.074 59.86 502.454 59.86C503.254 59.86 503.984 59.98 504.644 60.22C505.304 60.44 505.884 60.76 506.384 61.18C506.884 61.6 507.294 62.08 507.614 62.62C507.954 63.16 508.184 63.74 508.304 64.36L507.494 64.15V60.19H511.214V76H507.464V72.22L508.334 72.07C508.194 72.61 507.934 73.14 507.554 73.66C507.194 74.16 506.734 74.61 506.174 75.01C505.634 75.39 505.024 75.7 504.344 75.94C503.684 76.18 502.974 76.3 502.214 76.3ZM503.234 73.03C504.094 73.03 504.854 72.82 505.514 72.4C506.174 71.98 506.684 71.4 507.044 70.66C507.424 69.9 507.614 69.03 507.614 68.05C507.614 67.09 507.424 66.24 507.044 65.5C506.684 64.76 506.174 64.18 505.514 63.76C504.854 63.34 504.094 63.13 503.234 63.13C502.374 63.13 501.614 63.34 500.954 63.76C500.314 64.18 499.814 64.76 499.454 65.5C499.094 66.24 498.914 67.09 498.914 68.05C498.914 69.03 499.094 69.9 499.454 70.66C499.814 71.4 500.314 71.98 500.954 72.4C501.614 72.82 502.374 73.03 503.234 73.03ZM515.492 76V60.19H519.122L519.182 65.23L518.672 64.09C518.892 63.29 519.272 62.57 519.812 61.93C520.352 61.29 520.972 60.79 521.672 60.43C522.392 60.05 523.142 59.86 523.922 59.86C524.262 59.86 524.582 59.89 524.882 59.95C525.202 60.01 525.462 60.08 525.662 60.16L524.672 64.21C524.452 64.09 524.182 63.99 523.862 63.91C523.542 63.83 523.222 63.79 522.902 63.79C522.402 63.79 521.922 63.89 521.462 64.09C521.022 64.27 520.632 64.53 520.292 64.87C519.952 65.21 519.682 65.61 519.482 66.07C519.302 66.51 519.212 67.01 519.212 67.57V76H515.492ZM533.415 76.3C532.115 76.3 530.935 75.94 529.875 75.22C528.815 74.5 527.965 73.52 527.325 72.28C526.685 71.04 526.365 69.63 526.365 68.05C526.365 66.47 526.685 65.06 527.325 63.82C527.965 62.58 528.835 61.61 529.935 60.91C531.035 60.21 532.275 59.86 533.655 59.86C534.455 59.86 535.185 59.98 535.845 60.22C536.505 60.44 537.085 60.76 537.585 61.18C538.085 61.6 538.495 62.08 538.815 62.62C539.155 63.16 539.385 63.74 539.505 64.36L538.695 64.15V60.19H542.415V76H538.665V72.22L539.535 72.07C539.395 72.61 539.135 73.14 538.755 73.66C538.395 74.16 537.935 74.61 537.375 75.01C536.835 75.39 536.225 75.7 535.545 75.94C534.885 76.18 534.175 76.3 533.415 76.3ZM534.435 73.03C535.295 73.03 536.055 72.82 536.715 72.4C537.375 71.98 537.885 71.4 538.245 70.66C538.625 69.9 538.815 69.03 538.815 68.05C538.815 67.09 538.625 66.24 538.245 65.5C537.885 64.76 537.375 64.18 536.715 63.76C536.055 63.34 535.295 63.13 534.435 63.13C533.575 63.13 532.815 63.34 532.155 63.76C531.515 64.18 531.015 64.76 530.655 65.5C530.295 66.24 530.115 67.09 530.115 68.05C530.115 69.03 530.295 69.9 530.655 70.66C531.015 71.4 531.515 71.98 532.155 72.4C532.815 72.82 533.575 73.03 534.435 73.03ZM561.002 76.3C559.862 76.3 558.872 76.05 558.032 75.55C557.192 75.03 556.552 74.3 556.112 73.36C555.672 72.4 555.452 71.26 555.452 69.94V60.19H559.142V69.16C559.142 70 559.272 70.72 559.532 71.32C559.792 71.9 560.172 72.35 560.672 72.67C561.172 72.99 561.772 73.15 562.472 73.15C562.992 73.15 563.462 73.07 563.882 72.91C564.322 72.73 564.702 72.49 565.022 72.19C565.342 71.87 565.592 71.5 565.772 71.08C565.952 70.64 566.042 70.17 566.042 69.67V60.19H569.732V76H566.132L566.072 72.7L566.732 72.34C566.492 73.1 566.082 73.78 565.502 74.38C564.942 74.96 564.272 75.43 563.492 75.79C562.712 76.13 561.882 76.3 561.002 76.3ZM574.056 76V60.19H577.656L577.716 63.43L577.026 63.79C577.226 63.07 577.616 62.42 578.196 61.84C578.776 61.24 579.466 60.76 580.266 60.4C581.066 60.04 581.886 59.86 582.726 59.86C583.926 59.86 584.926 60.1 585.726 60.58C586.546 61.06 587.156 61.78 587.556 62.74C587.976 63.7 588.186 64.9 588.186 66.34V76H584.496V66.61C584.496 65.81 584.386 65.15 584.166 64.63C583.946 64.09 583.606 63.7 583.146 63.46C582.686 63.2 582.126 63.08 581.466 63.1C580.926 63.1 580.426 63.19 579.966 63.37C579.526 63.53 579.136 63.77 578.796 64.09C578.476 64.39 578.216 64.74 578.016 65.14C577.836 65.54 577.746 65.98 577.746 66.46V76H575.916C575.556 76 575.216 76 574.896 76C574.596 76 574.316 76 574.056 76ZM598.308 76.3C597.008 76.3 595.828 75.94 594.768 75.22C593.708 74.5 592.858 73.52 592.218 72.28C591.578 71.04 591.258 69.63 591.258 68.05C591.258 66.47 591.578 65.06 592.218 63.82C592.858 62.58 593.728 61.61 594.828 60.91C595.928 60.21 597.168 59.86 598.548 59.86C599.348 59.86 600.078 59.98 600.738 60.22C601.398 60.44 601.978 60.76 602.478 61.18C602.978 61.6 603.388 62.08 603.708 62.62C604.048 63.16 604.278 63.74 604.398 64.36L603.588 64.15V60.19H607.308V76H603.558V72.22L604.428 72.07C604.288 72.61 604.028 73.14 603.648 73.66C603.288 74.16 602.828 74.61 602.268 75.01C601.728 75.39 601.118 75.7 600.438 75.94C599.778 76.18 599.068 76.3 598.308 76.3ZM599.328 73.03C600.188 73.03 600.948 72.82 601.608 72.4C602.268 71.98 602.778 71.4 603.138 70.66C603.518 69.9 603.708 69.03 603.708 68.05C603.708 67.09 603.518 66.24 603.138 65.5C602.778 64.76 602.268 64.18 601.608 63.76C600.948 63.34 600.188 63.13 599.328 63.13C598.468 63.13 597.708 63.34 597.048 63.76C596.408 64.18 595.908 64.76 595.548 65.5C595.188 66.24 595.008 67.09 595.008 68.05C595.008 69.03 595.188 69.9 595.548 70.66C595.908 71.4 596.408 71.98 597.048 72.4C597.708 72.82 598.468 73.03 599.328 73.03ZM625.684 76.3C624.284 76.3 623.024 76.07 621.904 75.61C620.804 75.13 619.904 74.45 619.204 73.57L621.604 71.5C622.204 72.18 622.874 72.67 623.614 72.97C624.354 73.27 625.134 73.42 625.954 73.42C626.294 73.42 626.594 73.38 626.854 73.3C627.134 73.22 627.374 73.1 627.574 72.94C627.774 72.78 627.924 72.6 628.024 72.4C628.144 72.18 628.204 71.94 628.204 71.68C628.204 71.2 628.024 70.82 627.664 70.54C627.464 70.4 627.144 70.25 626.704 70.09C626.284 69.93 625.734 69.77 625.054 69.61C623.974 69.33 623.074 69.01 622.354 68.65C621.634 68.27 621.074 67.85 620.674 67.39C620.334 67.01 620.074 66.58 619.894 66.1C619.734 65.62 619.654 65.1 619.654 64.54C619.654 63.84 619.804 63.21 620.104 62.65C620.424 62.07 620.854 61.57 621.394 61.15C621.934 60.73 622.564 60.41 623.284 60.19C624.004 59.97 624.754 59.86 625.534 59.86C626.334 59.86 627.104 59.96 627.844 60.16C628.604 60.36 629.304 60.65 629.944 61.03C630.604 61.39 631.164 61.83 631.624 62.35L629.584 64.6C629.204 64.24 628.784 63.92 628.324 63.64C627.884 63.36 627.434 63.14 626.974 62.98C626.514 62.8 626.084 62.71 625.684 62.71C625.304 62.71 624.964 62.75 624.664 62.83C624.364 62.89 624.114 62.99 623.914 63.13C623.714 63.27 623.554 63.45 623.434 63.67C623.334 63.87 623.284 64.11 623.284 64.39C623.304 64.63 623.364 64.86 623.464 65.08C623.584 65.28 623.744 65.45 623.944 65.59C624.164 65.73 624.494 65.89 624.934 66.07C625.374 66.25 625.944 66.42 626.644 66.58C627.624 66.84 628.444 67.13 629.104 67.45C629.764 67.77 630.284 68.14 630.664 68.56C631.044 68.92 631.314 69.34 631.474 69.82C631.634 70.3 631.714 70.83 631.714 71.41C631.714 72.35 631.444 73.19 630.904 73.93C630.384 74.67 629.664 75.25 628.744 75.67C627.844 76.09 626.824 76.3 625.684 76.3ZM642.195 76.3C640.615 76.3 639.205 75.95 637.965 75.25C636.725 74.53 635.745 73.55 635.025 72.31C634.305 71.07 633.945 69.66 633.945 68.08C633.945 66.5 634.305 65.09 635.025 63.85C635.745 62.61 636.725 61.64 637.965 60.94C639.205 60.22 640.615 59.86 642.195 59.86C643.755 59.86 645.155 60.22 646.395 60.94C647.635 61.64 648.605 62.61 649.305 63.85C650.025 65.09 650.385 66.5 650.385 68.08C650.385 69.66 650.025 71.07 649.305 72.31C648.605 73.55 647.635 74.53 646.395 75.25C645.155 75.95 643.755 76.3 642.195 76.3ZM642.195 73.03C643.055 73.03 643.815 72.81 644.475 72.37C645.155 71.93 645.685 71.34 646.065 70.6C646.465 69.86 646.655 69.02 646.635 68.08C646.655 67.12 646.465 66.27 646.065 65.53C645.685 64.79 645.155 64.21 644.475 63.79C643.815 63.35 643.055 63.13 642.195 63.13C641.335 63.13 640.555 63.35 639.855 63.79C639.175 64.21 638.645 64.8 638.265 65.56C637.885 66.3 637.695 67.14 637.695 68.08C637.695 69.02 637.885 69.86 638.265 70.6C638.645 71.34 639.175 71.93 639.855 72.37C640.555 72.81 641.335 73.03 642.195 73.03ZM653.685 76V60.19H657.285L657.345 63.43L656.655 63.79C656.855 63.07 657.245 62.42 657.825 61.84C658.405 61.24 659.095 60.76 659.895 60.4C660.695 60.04 661.515 59.86 662.355 59.86C663.555 59.86 664.555 60.1 665.355 60.58C666.175 61.06 666.785 61.78 667.185 62.74C667.605 63.7 667.815 64.9 667.815 66.34V76H664.125V66.61C664.125 65.81 664.015 65.15 663.795 64.63C663.575 64.09 663.235 63.7 662.775 63.46C662.315 63.2 661.755 63.08 661.095 63.1C660.555 63.1 660.055 63.19 659.595 63.37C659.155 63.53 658.765 63.77 658.425 64.09C658.105 64.39 657.845 64.74 657.645 65.14C657.465 65.54 657.375 65.98 657.375 66.46V76H655.545C655.185 76 654.845 76 654.525 76C654.225 76 653.945 76 653.685 76ZM671.967 76V60.19H675.597L675.657 65.23L675.147 64.09C675.367 63.29 675.747 62.57 676.287 61.93C676.827 61.29 677.447 60.79 678.147 60.43C678.867 60.05 679.617 59.86 680.397 59.86C680.737 59.86 681.057 59.89 681.357 59.95C681.677 60.01 681.937 60.08 682.137 60.16L681.147 64.21C680.927 64.09 680.657 63.99 680.337 63.91C680.017 63.83 679.697 63.79 679.377 63.79C678.877 63.79 678.397 63.89 677.937 64.09C677.497 64.27 677.107 64.53 676.767 64.87C676.427 65.21 676.157 65.61 675.957 66.07C675.777 66.51 675.687 67.01 675.687 67.57V76H671.967ZM685.014 76V60.19H688.704V76H685.014ZM686.814 56.83C686.074 56.83 685.494 56.65 685.074 56.29C684.674 55.91 684.474 55.38 684.474 54.7C684.474 54.06 684.684 53.54 685.104 53.14C685.524 52.74 686.094 52.54 686.814 52.54C687.574 52.54 688.154 52.73 688.554 53.11C688.974 53.47 689.184 54 689.184 54.7C689.184 55.32 688.974 55.83 688.554 56.23C688.134 56.63 687.554 56.83 686.814 56.83ZM698.663 76.3C697.263 76.3 696.003 76.07 694.883 75.61C693.783 75.13 692.883 74.45 692.183 73.57L694.583 71.5C695.183 72.18 695.853 72.67 696.593 72.97C697.333 73.27 698.113 73.42 698.933 73.42C699.273 73.42 699.573 73.38 699.833 73.3C700.113 73.22 700.353 73.1 700.553 72.94C700.753 72.78 700.903 72.6 701.003 72.4C701.123 72.18 701.183 71.94 701.183 71.68C701.183 71.2 701.003 70.82 700.643 70.54C700.443 70.4 700.123 70.25 699.683 70.09C699.263 69.93 698.713 69.77 698.033 69.61C696.953 69.33 696.053 69.01 695.333 68.65C694.613 68.27 694.053 67.85 693.653 67.39C693.313 67.01 693.053 66.58 692.873 66.1C692.713 65.62 692.633 65.1 692.633 64.54C692.633 63.84 692.783 63.21 693.083 62.65C693.403 62.07 693.833 61.57 694.373 61.15C694.913 60.73 695.543 60.41 696.263 60.19C696.983 59.97 697.733 59.86 698.513 59.86C699.313 59.86 700.083 59.96 700.823 60.16C701.583 60.36 702.283 60.65 702.923 61.03C703.583 61.39 704.143 61.83 704.603 62.35L702.563 64.6C702.183 64.24 701.763 63.92 701.303 63.64C700.863 63.36 700.413 63.14 699.953 62.98C699.493 62.8 699.063 62.71 698.663 62.71C698.283 62.71 697.943 62.75 697.643 62.83C697.343 62.89 697.093 62.99 696.893 63.13C696.693 63.27 696.533 63.45 696.413 63.67C696.313 63.87 696.263 64.11 696.263 64.39C696.283 64.63 696.343 64.86 696.443 65.08C696.563 65.28 696.723 65.45 696.923 65.59C697.143 65.73 697.473 65.89 697.913 66.07C698.353 66.25 698.923 66.42 699.623 66.58C700.603 66.84 701.423 67.13 702.083 67.45C702.743 67.77 703.263 68.14 703.643 68.56C704.023 68.92 704.293 69.34 704.453 69.82C704.613 70.3 704.693 70.83 704.693 71.41C704.693 72.35 704.423 73.19 703.883 73.93C703.363 74.67 702.643 75.25 701.723 75.67C700.823 76.09 699.803 76.3 698.663 76.3ZM713.913 76.3C712.613 76.3 711.433 75.94 710.373 75.22C709.313 74.5 708.463 73.52 707.823 72.28C707.183 71.04 706.863 69.63 706.863 68.05C706.863 66.47 707.183 65.06 707.823 63.82C708.463 62.58 709.333 61.61 710.433 60.91C711.533 60.21 712.773 59.86 714.153 59.86C714.953 59.86 715.683 59.98 716.343 60.22C717.003 60.44 717.583 60.76 718.083 61.18C718.583 61.6 718.993 62.08 719.313 62.62C719.653 63.16 719.883 63.74 720.003 64.36L719.193 64.15V60.19H722.913V76H719.163V72.22L720.033 72.07C719.893 72.61 719.633 73.14 719.253 73.66C718.893 74.16 718.433 74.61 717.873 75.01C717.333 75.39 716.723 75.7 716.043 75.94C715.383 76.18 714.673 76.3 713.913 76.3ZM714.933 73.03C715.793 73.03 716.553 72.82 717.213 72.4C717.873 71.98 718.383 71.4 718.743 70.66C719.123 69.9 719.313 69.03 719.313 68.05C719.313 67.09 719.123 66.24 718.743 65.5C718.383 64.76 717.873 64.18 717.213 63.76C716.553 63.34 715.793 63.13 714.933 63.13C714.073 63.13 713.313 63.34 712.653 63.76C712.013 64.18 711.513 64.76 711.153 65.5C710.793 66.24 710.613 67.09 710.613 68.05C710.613 69.03 710.793 69.9 711.153 70.66C711.513 71.4 712.013 71.98 712.653 72.4C713.313 72.82 714.073 73.03 714.933 73.03ZM736.01 82.6V60.19H739.64L739.7 63.79L739.07 63.52C739.19 62.9 739.53 62.32 740.09 61.78C740.65 61.22 741.33 60.77 742.13 60.43C742.95 60.09 743.8 59.92 744.68 59.92C746.08 59.92 747.32 60.27 748.4 60.97C749.5 61.67 750.36 62.63 750.98 63.85C751.62 65.07 751.94 66.48 751.94 68.08C751.94 69.66 751.62 71.07 750.98 72.31C750.36 73.53 749.5 74.5 748.4 75.22C747.32 75.92 746.1 76.27 744.74 76.27C743.82 76.27 742.93 76.09 742.07 75.73C741.23 75.37 740.51 74.9 739.91 74.32C739.33 73.74 738.97 73.13 738.83 72.49L739.73 72.07V82.6H736.01ZM743.99 73C744.83 73 745.58 72.79 746.24 72.37C746.9 71.95 747.41 71.37 747.77 70.63C748.15 69.89 748.34 69.04 748.34 68.08C748.34 67.12 748.16 66.28 747.8 65.56C747.44 64.82 746.93 64.24 746.27 63.82C745.61 63.4 744.85 63.19 743.99 63.19C743.11 63.19 742.34 63.4 741.68 63.82C741.04 64.22 740.53 64.79 740.15 65.53C739.77 66.27 739.58 67.12 739.58 68.08C739.58 69.04 739.77 69.89 740.15 70.63C740.53 71.37 741.04 71.95 741.68 72.37C742.34 72.79 743.11 73 743.99 73ZM762.638 76.3C760.978 76.3 759.508 75.95 758.228 75.25C756.968 74.55 755.978 73.6 755.258 72.4C754.558 71.18 754.208 69.79 754.208 68.23C754.208 66.99 754.408 65.86 754.808 64.84C755.208 63.82 755.758 62.94 756.458 62.2C757.178 61.44 758.028 60.86 759.008 60.46C760.008 60.04 761.098 59.83 762.278 59.83C763.318 59.83 764.288 60.03 765.188 60.43C766.088 60.83 766.868 61.38 767.528 62.08C768.188 62.76 768.688 63.58 769.028 64.54C769.388 65.48 769.558 66.51 769.538 67.63L769.508 68.92H756.698L756.008 66.4H766.418L765.938 66.91V66.25C765.878 65.63 765.678 65.09 765.338 64.63C764.998 64.15 764.558 63.78 764.018 63.52C763.498 63.24 762.918 63.1 762.278 63.1C761.298 63.1 760.468 63.29 759.788 63.67C759.128 64.05 758.628 64.6 758.288 65.32C757.948 66.02 757.778 66.9 757.778 67.96C757.778 68.98 757.988 69.87 758.408 70.63C758.848 71.39 759.458 71.98 760.238 72.4C761.038 72.8 761.968 73 763.028 73C763.768 73 764.448 72.88 765.068 72.64C765.688 72.4 766.358 71.97 767.078 71.35L768.908 73.9C768.368 74.4 767.748 74.83 767.048 75.19C766.368 75.53 765.648 75.8 764.888 76C764.128 76.2 763.378 76.3 762.638 76.3ZM772.806 76V60.19H776.436L776.496 65.23L775.986 64.09C776.206 63.29 776.586 62.57 777.126 61.93C777.666 61.29 778.286 60.79 778.986 60.43C779.706 60.05 780.456 59.86 781.236 59.86C781.576 59.86 781.896 59.89 782.196 59.95C782.516 60.01 782.776 60.08 782.976 60.16L781.986 64.21C781.766 64.09 781.496 63.99 781.176 63.91C780.856 63.83 780.536 63.79 780.216 63.79C779.716 63.79 779.236 63.89 778.776 64.09C778.336 64.27 777.946 64.53 777.606 64.87C777.266 65.21 776.996 65.61 776.796 66.07C776.616 66.51 776.526 67.01 776.526 67.57V76H772.806ZM786.873 76V58.78C786.873 57.82 787.083 56.97 787.503 56.23C787.923 55.47 788.503 54.88 789.243 54.46C789.983 54.02 790.843 53.8 791.823 53.8C792.503 53.8 793.133 53.92 793.713 54.16C794.293 54.38 794.783 54.69 795.183 55.09L794.043 57.88C793.783 57.66 793.503 57.49 793.203 57.37C792.923 57.25 792.653 57.19 792.393 57.19C791.993 57.19 791.653 57.26 791.373 57.4C791.113 57.52 790.913 57.71 790.773 57.97C790.653 58.23 790.593 58.54 790.593 58.9V76H788.733C788.373 76 788.033 76 787.713 76C787.413 76 787.133 76 786.873 76ZM784.413 63.76V60.52H794.163V63.76H784.413ZM804.035 76.3C802.375 76.3 800.905 75.95 799.625 75.25C798.365 74.55 797.375 73.6 796.655 72.4C795.955 71.18 795.605 69.79 795.605 68.23C795.605 66.99 795.805 65.86 796.205 64.84C796.605 63.82 797.155 62.94 797.855 62.2C798.575 61.44 799.425 60.86 800.405 60.46C801.405 60.04 802.495 59.83 803.675 59.83C804.715 59.83 805.685 60.03 806.585 60.43C807.485 60.83 808.265 61.38 808.925 62.08C809.585 62.76 810.085 63.58 810.425 64.54C810.785 65.48 810.955 66.51 810.935 67.63L810.905 68.92H798.095L797.405 66.4H807.815L807.335 66.91V66.25C807.275 65.63 807.075 65.09 806.735 64.63C806.395 64.15 805.955 63.78 805.415 63.52C804.895 63.24 804.315 63.1 803.675 63.1C802.695 63.1 801.865 63.29 801.185 63.67C800.525 64.05 800.025 64.6 799.685 65.32C799.345 66.02 799.175 66.9 799.175 67.96C799.175 68.98 799.385 69.87 799.805 70.63C800.245 71.39 800.855 71.98 801.635 72.4C802.435 72.8 803.365 73 804.425 73C805.165 73 805.845 72.88 806.465 72.64C807.085 72.4 807.755 71.97 808.475 71.35L810.305 73.9C809.765 74.4 809.145 74.83 808.445 75.19C807.765 75.53 807.045 75.8 806.285 76C805.525 76.2 804.775 76.3 804.035 76.3ZM820.983 76.3C819.503 76.3 818.173 75.94 816.993 75.22C815.813 74.5 814.883 73.52 814.203 72.28C813.523 71.04 813.183 69.64 813.183 68.08C813.183 66.52 813.523 65.12 814.203 63.88C814.883 62.64 815.813 61.66 816.993 60.94C818.173 60.22 819.503 59.86 820.983 59.86C822.403 59.86 823.693 60.13 824.853 60.67C826.013 61.21 826.913 61.96 827.553 62.92L825.513 65.38C825.213 64.96 824.833 64.58 824.373 64.24C823.913 63.9 823.423 63.63 822.903 63.43C822.383 63.23 821.863 63.13 821.343 63.13C820.463 63.13 819.673 63.35 818.973 63.79C818.293 64.21 817.753 64.8 817.353 65.56C816.953 66.3 816.753 67.14 816.753 68.08C816.753 69.02 816.953 69.86 817.353 70.6C817.773 71.34 818.333 71.93 819.033 72.37C819.733 72.81 820.513 73.03 821.373 73.03C821.893 73.03 822.393 72.95 822.873 72.79C823.373 72.61 823.843 72.36 824.283 72.04C824.723 71.72 825.133 71.32 825.513 70.84L827.553 73.33C826.873 74.21 825.933 74.93 824.733 75.49C823.553 76.03 822.303 76.3 820.983 76.3ZM832.085 76V56.17H835.775V76H832.085ZM828.965 63.61V60.19H839.225V63.61H828.965ZM847.859 76.3C846.559 76.3 845.379 75.94 844.319 75.22C843.259 74.5 842.409 73.52 841.769 72.28C841.129 71.04 840.809 69.63 840.809 68.05C840.809 66.47 841.129 65.06 841.769 63.82C842.409 62.58 843.279 61.61 844.379 60.91C845.479 60.21 846.719 59.86 848.099 59.86C848.899 59.86 849.629 59.98 850.289 60.22C850.949 60.44 851.529 60.76 852.029 61.18C852.529 61.6 852.939 62.08 853.259 62.62C853.599 63.16 853.829 63.74 853.949 64.36L853.139 64.15V60.19H856.859V76H853.109V72.22L853.979 72.07C853.839 72.61 853.579 73.14 853.199 73.66C852.839 74.16 852.379 74.61 851.819 75.01C851.279 75.39 850.669 75.7 849.989 75.94C849.329 76.18 848.619 76.3 847.859 76.3ZM848.879 73.03C849.739 73.03 850.499 72.82 851.159 72.4C851.819 71.98 852.329 71.4 852.689 70.66C853.069 69.9 853.259 69.03 853.259 68.05C853.259 67.09 853.069 66.24 852.689 65.5C852.329 64.76 851.819 64.18 851.159 63.76C850.499 63.34 849.739 63.13 848.879 63.13C848.019 63.13 847.259 63.34 846.599 63.76C845.959 64.18 845.459 64.76 845.099 65.5C844.739 66.24 844.559 67.09 844.559 68.05C844.559 69.03 844.739 69.9 845.099 70.66C845.459 71.4 845.959 71.98 846.599 72.4C847.259 72.82 848.019 73.03 848.879 73.03ZM877.365 76.3C875.705 76.3 874.235 75.95 872.955 75.25C871.695 74.55 870.705 73.6 869.985 72.4C869.285 71.18 868.935 69.79 868.935 68.23C868.935 66.99 869.135 65.86 869.535 64.84C869.935 63.82 870.485 62.94 871.185 62.2C871.905 61.44 872.755 60.86 873.735 60.46C874.735 60.04 875.825 59.83 877.005 59.83C878.045 59.83 879.015 60.03 879.915 60.43C880.815 60.83 881.595 61.38 882.255 62.08C882.915 62.76 883.415 63.58 883.755 64.54C884.115 65.48 884.285 66.51 884.265 67.63L884.235 68.92H871.425L870.735 66.4H881.145L880.665 66.91V66.25C880.605 65.63 880.405 65.09 880.065 64.63C879.725 64.15 879.285 63.78 878.745 63.52C878.225 63.24 877.645 63.1 877.005 63.1C876.025 63.1 875.195 63.29 874.515 63.67C873.855 64.05 873.355 64.6 873.015 65.32C872.675 66.02 872.505 66.9 872.505 67.96C872.505 68.98 872.715 69.87 873.135 70.63C873.575 71.39 874.185 71.98 874.965 72.4C875.765 72.8 876.695 73 877.755 73C878.495 73 879.175 72.88 879.795 72.64C880.415 72.4 881.085 71.97 881.805 71.35L883.635 73.9C883.095 74.4 882.475 74.83 881.775 75.19C881.095 75.53 880.375 75.8 879.615 76C878.855 76.2 878.105 76.3 877.365 76.3ZM892.813 76.3C891.413 76.3 890.153 76.07 889.033 75.61C887.933 75.13 887.033 74.45 886.333 73.57L888.733 71.5C889.333 72.18 890.003 72.67 890.743 72.97C891.483 73.27 892.263 73.42 893.083 73.42C893.423 73.42 893.723 73.38 893.983 73.3C894.263 73.22 894.503 73.1 894.703 72.94C894.903 72.78 895.053 72.6 895.153 72.4C895.273 72.18 895.333 71.94 895.333 71.68C895.333 71.2 895.153 70.82 894.793 70.54C894.593 70.4 894.273 70.25 893.833 70.09C893.413 69.93 892.863 69.77 892.183 69.61C891.103 69.33 890.203 69.01 889.483 68.65C888.763 68.27 888.203 67.85 887.803 67.39C887.463 67.01 887.203 66.58 887.023 66.1C886.863 65.62 886.783 65.1 886.783 64.54C886.783 63.84 886.933 63.21 887.233 62.65C887.553 62.07 887.983 61.57 888.523 61.15C889.063 60.73 889.693 60.41 890.413 60.19C891.133 59.97 891.883 59.86 892.663 59.86C893.463 59.86 894.233 59.96 894.973 60.16C895.733 60.36 896.433 60.65 897.073 61.03C897.733 61.39 898.293 61.83 898.753 62.35L896.713 64.6C896.333 64.24 895.913 63.92 895.453 63.64C895.013 63.36 894.563 63.14 894.103 62.98C893.643 62.8 893.213 62.71 892.813 62.71C892.433 62.71 892.093 62.75 891.793 62.83C891.493 62.89 891.243 62.99 891.043 63.13C890.843 63.27 890.683 63.45 890.563 63.67C890.463 63.87 890.413 64.11 890.413 64.39C890.433 64.63 890.493 64.86 890.593 65.08C890.713 65.28 890.873 65.45 891.073 65.59C891.293 65.73 891.623 65.89 892.063 66.07C892.503 66.25 893.073 66.42 893.773 66.58C894.753 66.84 895.573 67.13 896.233 67.45C896.893 67.77 897.413 68.14 897.793 68.56C898.173 68.92 898.443 69.34 898.603 69.82C898.763 70.3 898.843 70.83 898.843 71.41C898.843 72.35 898.573 73.19 898.033 73.93C897.513 74.67 896.793 75.25 895.873 75.67C894.973 76.09 893.953 76.3 892.813 76.3ZM903.804 76V56.17H907.494V76H903.804ZM900.684 63.61V60.19H910.944V63.61H900.684ZM919.577 76.3C918.277 76.3 917.097 75.94 916.037 75.22C914.977 74.5 914.127 73.52 913.487 72.28C912.847 71.04 912.527 69.63 912.527 68.05C912.527 66.47 912.847 65.06 913.487 63.82C914.127 62.58 914.997 61.61 916.097 60.91C917.197 60.21 918.437 59.86 919.817 59.86C920.617 59.86 921.347 59.98 922.007 60.22C922.667 60.44 923.247 60.76 923.747 61.18C924.247 61.6 924.657 62.08 924.977 62.62C925.317 63.16 925.547 63.74 925.667 64.36L924.857 64.15V60.19H928.577V76H924.827V72.22L925.697 72.07C925.557 72.61 925.297 73.14 924.917 73.66C924.557 74.16 924.097 74.61 923.537 75.01C922.997 75.39 922.387 75.7 921.707 75.94C921.047 76.18 920.337 76.3 919.577 76.3ZM920.597 73.03C921.457 73.03 922.217 72.82 922.877 72.4C923.537 71.98 924.047 71.4 924.407 70.66C924.787 69.9 924.977 69.03 924.977 68.05C924.977 67.09 924.787 66.24 924.407 65.5C924.047 64.76 923.537 64.18 922.877 63.76C922.217 63.34 921.457 63.13 920.597 63.13C919.737 63.13 918.977 63.34 918.317 63.76C917.677 64.18 917.177 64.76 916.817 65.5C916.457 66.24 916.277 67.09 916.277 68.05C916.277 69.03 916.457 69.9 916.817 70.66C917.177 71.4 917.677 71.98 918.317 72.4C918.977 72.82 919.737 73.03 920.597 73.03ZM918.917 58L917.747 56.23L922.427 52.33L924.467 55L918.917 58ZM949.084 76.3C947.424 76.3 945.954 75.95 944.674 75.25C943.414 74.55 942.424 73.6 941.704 72.4C941.004 71.18 940.654 69.79 940.654 68.23C940.654 66.99 940.854 65.86 941.254 64.84C941.654 63.82 942.204 62.94 942.904 62.2C943.624 61.44 944.474 60.86 945.454 60.46C946.454 60.04 947.544 59.83 948.724 59.83C949.764 59.83 950.734 60.03 951.634 60.43C952.534 60.83 953.314 61.38 953.974 62.08C954.634 62.76 955.134 63.58 955.474 64.54C955.834 65.48 956.004 66.51 955.984 67.63L955.954 68.92H943.144L942.454 66.4H952.864L952.384 66.91V66.25C952.324 65.63 952.124 65.09 951.784 64.63C951.444 64.15 951.004 63.78 950.464 63.52C949.944 63.24 949.364 63.1 948.724 63.1C947.744 63.1 946.914 63.29 946.234 63.67C945.574 64.05 945.074 64.6 944.734 65.32C944.394 66.02 944.224 66.9 944.224 67.96C944.224 68.98 944.434 69.87 944.854 70.63C945.294 71.39 945.904 71.98 946.684 72.4C947.484 72.8 948.414 73 949.474 73C950.214 73 950.894 72.88 951.514 72.64C952.134 72.4 952.804 71.97 953.524 71.35L955.354 73.9C954.814 74.4 954.194 74.83 953.494 75.19C952.814 75.53 952.094 75.8 951.334 76C950.574 76.2 949.824 76.3 949.084 76.3ZM959.252 76V60.19H962.852L962.912 63.43L962.222 63.79C962.422 63.07 962.812 62.42 963.392 61.84C963.972 61.24 964.662 60.76 965.462 60.4C966.262 60.04 967.082 59.86 967.922 59.86C969.122 59.86 970.122 60.1 970.922 60.58C971.742 61.06 972.352 61.78 972.752 62.74C973.172 63.7 973.382 64.9 973.382 66.34V76H969.692V66.61C969.692 65.81 969.582 65.15 969.362 64.63C969.142 64.09 968.802 63.7 968.342 63.46C967.882 63.2 967.322 63.08 966.662 63.1C966.122 63.1 965.622 63.19 965.162 63.37C964.722 63.53 964.332 63.77 963.992 64.09C963.672 64.39 963.412 64.74 963.212 65.14C963.032 65.54 962.942 65.98 962.942 66.46V76H961.112C960.752 76 960.412 76 960.092 76C959.792 76 959.512 76 959.252 76ZM986.351 76V60.19H989.951L990.011 63.43L989.321 63.79C989.521 63.07 989.911 62.42 990.491 61.84C991.071 61.24 991.761 60.76 992.561 60.4C993.361 60.04 994.181 59.86 995.021 59.86C996.221 59.86 997.221 60.1 998.021 60.58C998.841 61.06 999.451 61.78 999.851 62.74C1000.27 63.7 1000.48 64.9 1000.48 66.34V76H996.791V66.61C996.791 65.81 996.681 65.15 996.461 64.63C996.241 64.09 995.901 63.7 995.441 63.46C994.981 63.2 994.421 63.08 993.761 63.1C993.221 63.1 992.721 63.19 992.261 63.37C991.821 63.53 991.431 63.77 991.091 64.09C990.771 64.39 990.511 64.74 990.311 65.14C990.131 65.54 990.041 65.98 990.041 66.46V76H988.211C987.851 76 987.511 76 987.191 76C986.891 76 986.611 76 986.351 76ZM1010.12 76.3C1008.98 76.3 1007.99 76.05 1007.15 75.55C1006.31 75.03 1005.67 74.3 1005.23 73.36C1004.79 72.4 1004.57 71.26 1004.57 69.94V60.19H1008.26V69.16C1008.26 70 1008.39 70.72 1008.65 71.32C1008.91 71.9 1009.29 72.35 1009.79 72.67C1010.29 72.99 1010.89 73.15 1011.59 73.15C1012.11 73.15 1012.58 73.07 1013 72.91C1013.44 72.73 1013.82 72.49 1014.14 72.19C1014.46 71.87 1014.71 71.5 1014.89 71.08C1015.07 70.64 1015.16 70.17 1015.16 69.67V60.19H1018.85V76H1015.25L1015.19 72.7L1015.85 72.34C1015.61 73.1 1015.2 73.78 1014.62 74.38C1014.06 74.96 1013.39 75.43 1012.61 75.79C1011.83 76.13 1011 76.3 1010.12 76.3ZM1030.59 76.3C1028.93 76.3 1027.46 75.95 1026.18 75.25C1024.92 74.55 1023.93 73.6 1023.21 72.4C1022.51 71.18 1022.16 69.79 1022.16 68.23C1022.16 66.99 1022.36 65.86 1022.76 64.84C1023.16 63.82 1023.71 62.94 1024.41 62.2C1025.13 61.44 1025.98 60.86 1026.96 60.46C1027.96 60.04 1029.05 59.83 1030.23 59.83C1031.27 59.83 1032.24 60.03 1033.14 60.43C1034.04 60.83 1034.82 61.38 1035.48 62.08C1036.14 62.76 1036.64 63.58 1036.98 64.54C1037.34 65.48 1037.51 66.51 1037.49 67.63L1037.46 68.92H1024.65L1023.96 66.4H1034.37L1033.89 66.91V66.25C1033.83 65.63 1033.63 65.09 1033.29 64.63C1032.95 64.15 1032.51 63.78 1031.97 63.52C1031.45 63.24 1030.87 63.1 1030.23 63.1C1029.25 63.1 1028.42 63.29 1027.74 63.67C1027.08 64.05 1026.58 64.6 1026.24 65.32C1025.9 66.02 1025.73 66.9 1025.73 67.96C1025.73 68.98 1025.94 69.87 1026.36 70.63C1026.8 71.39 1027.41 71.98 1028.19 72.4C1028.99 72.8 1029.92 73 1030.98 73C1031.72 73 1032.4 72.88 1033.02 72.64C1033.64 72.4 1034.31 71.97 1035.03 71.35L1036.86 73.9C1036.32 74.4 1035.7 74.83 1035 75.19C1034.32 75.53 1033.6 75.8 1032.84 76C1032.08 76.2 1031.33 76.3 1030.59 76.3ZM1046.04 76.3C1044.64 76.3 1043.38 76.07 1042.26 75.61C1041.16 75.13 1040.26 74.45 1039.56 73.57L1041.96 71.5C1042.56 72.18 1043.23 72.67 1043.97 72.97C1044.71 73.27 1045.49 73.42 1046.31 73.42C1046.65 73.42 1046.95 73.38 1047.21 73.3C1047.49 73.22 1047.73 73.1 1047.93 72.94C1048.13 72.78 1048.28 72.6 1048.38 72.4C1048.5 72.18 1048.56 71.94 1048.56 71.68C1048.56 71.2 1048.38 70.82 1048.02 70.54C1047.82 70.4 1047.5 70.25 1047.06 70.09C1046.64 69.93 1046.09 69.77 1045.41 69.61C1044.33 69.33 1043.43 69.01 1042.71 68.65C1041.99 68.27 1041.43 67.85 1041.03 67.39C1040.69 67.01 1040.43 66.58 1040.25 66.1C1040.09 65.62 1040.01 65.1 1040.01 64.54C1040.01 63.84 1040.16 63.21 1040.46 62.65C1040.78 62.07 1041.21 61.57 1041.75 61.15C1042.29 60.73 1042.92 60.41 1043.64 60.19C1044.36 59.97 1045.11 59.86 1045.89 59.86C1046.69 59.86 1047.46 59.96 1048.2 60.16C1048.96 60.36 1049.66 60.65 1050.3 61.03C1050.96 61.39 1051.52 61.83 1051.98 62.35L1049.94 64.6C1049.56 64.24 1049.14 63.92 1048.68 63.64C1048.24 63.36 1047.79 63.14 1047.33 62.98C1046.87 62.8 1046.44 62.71 1046.04 62.71C1045.66 62.71 1045.32 62.75 1045.02 62.83C1044.72 62.89 1044.47 62.99 1044.27 63.13C1044.07 63.27 1043.91 63.45 1043.79 63.67C1043.69 63.87 1043.64 64.11 1043.64 64.39C1043.66 64.63 1043.72 64.86 1043.82 65.08C1043.94 65.28 1044.1 65.45 1044.3 65.59C1044.52 65.73 1044.85 65.89 1045.29 66.07C1045.73 66.25 1046.3 66.42 1047 66.58C1047.98 66.84 1048.8 67.13 1049.46 67.45C1050.12 67.77 1050.64 68.14 1051.02 68.56C1051.4 68.92 1051.67 69.34 1051.83 69.82C1051.99 70.3 1052.07 70.83 1052.07 71.41C1052.07 72.35 1051.8 73.19 1051.26 73.93C1050.74 74.67 1050.02 75.25 1049.1 75.67C1048.2 76.09 1047.18 76.3 1046.04 76.3ZM1057.03 76V56.17H1060.72V76H1057.03ZM1053.91 63.61V60.19H1064.17V63.61H1053.91ZM1066.98 76V60.19H1070.61L1070.67 65.23L1070.16 64.09C1070.38 63.29 1070.76 62.57 1071.3 61.93C1071.84 61.29 1072.46 60.79 1073.16 60.43C1073.88 60.05 1074.63 59.86 1075.41 59.86C1075.75 59.86 1076.07 59.89 1076.37 59.95C1076.69 60.01 1076.95 60.08 1077.15 60.16L1076.16 64.21C1075.94 64.09 1075.67 63.99 1075.35 63.91C1075.03 63.83 1074.71 63.79 1074.39 63.79C1073.89 63.79 1073.41 63.89 1072.95 64.09C1072.51 64.27 1072.12 64.53 1071.78 64.87C1071.44 65.21 1071.17 65.61 1070.97 66.07C1070.79 66.51 1070.7 67.01 1070.7 67.57V76H1066.98ZM1084.9 76.3C1083.6 76.3 1082.42 75.94 1081.36 75.22C1080.3 74.5 1079.45 73.52 1078.81 72.28C1078.17 71.04 1077.85 69.63 1077.85 68.05C1077.85 66.47 1078.17 65.06 1078.81 63.82C1079.45 62.58 1080.32 61.61 1081.42 60.91C1082.52 60.21 1083.76 59.86 1085.14 59.86C1085.94 59.86 1086.67 59.98 1087.33 60.22C1087.99 60.44 1088.57 60.76 1089.07 61.18C1089.57 61.6 1089.98 62.08 1090.3 62.62C1090.64 63.16 1090.87 63.74 1090.99 64.36L1090.18 64.15V60.19H1093.9V76H1090.15V72.22L1091.02 72.07C1090.88 72.61 1090.62 73.14 1090.24 73.66C1089.88 74.16 1089.42 74.61 1088.86 75.01C1088.32 75.39 1087.71 75.7 1087.03 75.94C1086.37 76.18 1085.66 76.3 1084.9 76.3ZM1085.92 73.03C1086.78 73.03 1087.54 72.82 1088.2 72.4C1088.86 71.98 1089.37 71.4 1089.73 70.66C1090.11 69.9 1090.3 69.03 1090.3 68.05C1090.3 67.09 1090.11 66.24 1089.73 65.5C1089.37 64.76 1088.86 64.18 1088.2 63.76C1087.54 63.34 1086.78 63.13 1085.92 63.13C1085.06 63.13 1084.3 63.34 1083.64 63.76C1083 64.18 1082.5 64.76 1082.14 65.5C1081.78 66.24 1081.6 67.09 1081.6 68.05C1081.6 69.03 1081.78 69.9 1082.14 70.66C1082.5 71.4 1083 71.98 1083.64 72.4C1084.3 72.82 1085.06 73.03 1085.92 73.03ZM1103.46 76.3C1102.06 76.3 1100.8 76.07 1099.68 75.61C1098.58 75.13 1097.68 74.45 1096.98 73.57L1099.38 71.5C1099.98 72.18 1100.65 72.67 1101.39 72.97C1102.13 73.27 1102.91 73.42 1103.73 73.42C1104.07 73.42 1104.37 73.38 1104.63 73.3C1104.91 73.22 1105.15 73.1 1105.35 72.94C1105.55 72.78 1105.7 72.6 1105.8 72.4C1105.92 72.18 1105.98 71.94 1105.98 71.68C1105.98 71.2 1105.8 70.82 1105.44 70.54C1105.24 70.4 1104.92 70.25 1104.48 70.09C1104.06 69.93 1103.51 69.77 1102.83 69.61C1101.75 69.33 1100.85 69.01 1100.13 68.65C1099.41 68.27 1098.85 67.85 1098.45 67.39C1098.11 67.01 1097.85 66.58 1097.67 66.1C1097.51 65.62 1097.43 65.1 1097.43 64.54C1097.43 63.84 1097.58 63.21 1097.88 62.65C1098.2 62.07 1098.63 61.57 1099.17 61.15C1099.71 60.73 1100.34 60.41 1101.06 60.19C1101.78 59.97 1102.53 59.86 1103.31 59.86C1104.11 59.86 1104.88 59.96 1105.62 60.16C1106.38 60.36 1107.08 60.65 1107.72 61.03C1108.38 61.39 1108.94 61.83 1109.4 62.35L1107.36 64.6C1106.98 64.24 1106.56 63.92 1106.1 63.64C1105.66 63.36 1105.21 63.14 1104.75 62.98C1104.29 62.8 1103.86 62.71 1103.46 62.71C1103.08 62.71 1102.74 62.75 1102.44 62.83C1102.14 62.89 1101.89 62.99 1101.69 63.13C1101.49 63.27 1101.33 63.45 1101.21 63.67C1101.11 63.87 1101.06 64.11 1101.06 64.39C1101.08 64.63 1101.14 64.86 1101.24 65.08C1101.36 65.28 1101.52 65.45 1101.72 65.59C1101.94 65.73 1102.27 65.89 1102.71 66.07C1103.15 66.25 1103.72 66.42 1104.42 66.58C1105.4 66.84 1106.22 67.13 1106.88 67.45C1107.54 67.77 1108.06 68.14 1108.44 68.56C1108.82 68.92 1109.09 69.34 1109.25 69.82C1109.41 70.3 1109.49 70.83 1109.49 71.41C1109.49 72.35 1109.22 73.19 1108.68 73.93C1108.16 74.67 1107.44 75.25 1106.52 75.67C1105.62 76.09 1104.6 76.3 1103.46 76.3ZM1121.5 76V60.19H1125.13L1125.19 63.37L1124.59 63.61C1124.77 63.09 1125.04 62.61 1125.4 62.17C1125.76 61.71 1126.19 61.32 1126.69 61C1127.19 60.66 1127.72 60.4 1128.28 60.22C1128.84 60.02 1129.41 59.92 1129.99 59.92C1130.85 59.92 1131.61 60.06 1132.27 60.34C1132.95 60.6 1133.51 61.02 1133.95 61.6C1134.41 62.18 1134.75 62.92 1134.97 63.82L1134.4 63.7L1134.64 63.22C1134.86 62.74 1135.17 62.31 1135.57 61.93C1135.97 61.53 1136.42 61.18 1136.92 60.88C1137.42 60.56 1137.94 60.32 1138.48 60.16C1139.04 60 1139.59 59.92 1140.13 59.92C1141.33 59.92 1142.33 60.16 1143.13 60.64C1143.93 61.12 1144.53 61.85 1144.93 62.83C1145.33 63.81 1145.53 65.02 1145.53 66.46V76H1141.81V66.7C1141.81 65.9 1141.7 65.24 1141.48 64.72C1141.28 64.2 1140.96 63.82 1140.52 63.58C1140.1 63.32 1139.57 63.19 1138.93 63.19C1138.43 63.19 1137.95 63.28 1137.49 63.46C1137.05 63.62 1136.67 63.86 1136.35 64.18C1136.03 64.48 1135.78 64.83 1135.6 65.23C1135.42 65.63 1135.33 66.07 1135.33 66.55V76H1131.61V66.67C1131.61 65.91 1131.5 65.28 1131.28 64.78C1131.06 64.26 1130.74 63.87 1130.32 63.61C1129.9 63.33 1129.39 63.19 1128.79 63.19C1128.29 63.19 1127.82 63.28 1127.38 63.46C1126.94 63.62 1126.56 63.85 1126.24 64.15C1125.92 64.45 1125.67 64.8 1125.49 65.2C1125.31 65.6 1125.22 66.04 1125.22 66.52V76H1121.5ZM1155.59 76.3C1154.29 76.3 1153.11 75.94 1152.05 75.22C1150.99 74.5 1150.14 73.52 1149.5 72.28C1148.86 71.04 1148.54 69.63 1148.54 68.05C1148.54 66.47 1148.86 65.06 1149.5 63.82C1150.14 62.58 1151.01 61.61 1152.11 60.91C1153.21 60.21 1154.45 59.86 1155.83 59.86C1156.63 59.86 1157.36 59.98 1158.02 60.22C1158.68 60.44 1159.26 60.76 1159.76 61.18C1160.26 61.6 1160.67 62.08 1160.99 62.62C1161.33 63.16 1161.56 63.74 1161.68 64.36L1160.87 64.15V60.19H1164.59V76H1160.84V72.22L1161.71 72.07C1161.57 72.61 1161.31 73.14 1160.93 73.66C1160.57 74.16 1160.11 74.61 1159.55 75.01C1159.01 75.39 1158.4 75.7 1157.72 75.94C1157.06 76.18 1156.35 76.3 1155.59 76.3ZM1156.61 73.03C1157.47 73.03 1158.23 72.82 1158.89 72.4C1159.55 71.98 1160.06 71.4 1160.42 70.66C1160.8 69.9 1160.99 69.03 1160.99 68.05C1160.99 67.09 1160.8 66.24 1160.42 65.5C1160.06 64.76 1159.55 64.18 1158.89 63.76C1158.23 63.34 1157.47 63.13 1156.61 63.13C1155.75 63.13 1154.99 63.34 1154.33 63.76C1153.69 64.18 1153.19 64.76 1152.83 65.5C1152.47 66.24 1152.29 67.09 1152.29 68.05C1152.29 69.03 1152.47 69.9 1152.83 70.66C1153.19 71.4 1153.69 71.98 1154.33 72.4C1154.99 72.82 1155.75 73.03 1156.61 73.03ZM1168.87 76V60.19H1172.47L1172.53 63.43L1171.84 63.79C1172.04 63.07 1172.43 62.42 1173.01 61.84C1173.59 61.24 1174.28 60.76 1175.08 60.4C1175.88 60.04 1176.7 59.86 1177.54 59.86C1178.74 59.86 1179.74 60.1 1180.54 60.58C1181.36 61.06 1181.97 61.78 1182.37 62.74C1182.79 63.7 1183 64.9 1183 66.34V76H1179.31V66.61C1179.31 65.81 1179.2 65.15 1178.98 64.63C1178.76 64.09 1178.42 63.7 1177.96 63.46C1177.5 63.2 1176.94 63.08 1176.28 63.1C1175.74 63.1 1175.24 63.19 1174.78 63.37C1174.34 63.53 1173.95 63.77 1173.61 64.09C1173.29 64.39 1173.03 64.74 1172.83 65.14C1172.65 65.54 1172.56 65.98 1172.56 66.46V76H1170.73C1170.37 76 1170.03 76 1169.71 76C1169.41 76 1169.13 76 1168.87 76ZM1194.38 76.3C1192.8 76.3 1191.39 75.95 1190.15 75.25C1188.91 74.53 1187.93 73.55 1187.21 72.31C1186.49 71.07 1186.13 69.66 1186.13 68.08C1186.13 66.5 1186.49 65.09 1187.21 63.85C1187.93 62.61 1188.91 61.64 1190.15 60.94C1191.39 60.22 1192.8 59.86 1194.38 59.86C1195.94 59.86 1197.34 60.22 1198.58 60.94C1199.82 61.64 1200.79 62.61 1201.49 63.85C1202.21 65.09 1202.57 66.5 1202.57 68.08C1202.57 69.66 1202.21 71.07 1201.49 72.31C1200.79 73.55 1199.82 74.53 1198.58 75.25C1197.34 75.95 1195.94 76.3 1194.38 76.3ZM1194.38 73.03C1195.24 73.03 1196 72.81 1196.66 72.37C1197.34 71.93 1197.87 71.34 1198.25 70.6C1198.65 69.86 1198.84 69.02 1198.82 68.08C1198.84 67.12 1198.65 66.27 1198.25 65.53C1197.87 64.79 1197.34 64.21 1196.66 63.79C1196 63.35 1195.24 63.13 1194.38 63.13C1193.52 63.13 1192.74 63.35 1192.04 63.79C1191.36 64.21 1190.83 64.8 1190.45 65.56C1190.07 66.3 1189.88 67.14 1189.88 68.08C1189.88 69.02 1190.07 69.86 1190.45 70.6C1190.83 71.34 1191.36 71.93 1192.04 72.37C1192.74 72.81 1193.52 73.03 1194.38 73.03ZM1211.15 76.3C1209.75 76.3 1208.49 76.07 1207.37 75.61C1206.27 75.13 1205.37 74.45 1204.67 73.57L1207.07 71.5C1207.67 72.18 1208.34 72.67 1209.08 72.97C1209.82 73.27 1210.6 73.42 1211.42 73.42C1211.76 73.42 1212.06 73.38 1212.32 73.3C1212.6 73.22 1212.84 73.1 1213.04 72.94C1213.24 72.78 1213.39 72.6 1213.49 72.4C1213.61 72.18 1213.67 71.94 1213.67 71.68C1213.67 71.2 1213.49 70.82 1213.13 70.54C1212.93 70.4 1212.61 70.25 1212.17 70.09C1211.75 69.93 1211.2 69.77 1210.52 69.61C1209.44 69.33 1208.54 69.01 1207.82 68.65C1207.1 68.27 1206.54 67.85 1206.14 67.39C1205.8 67.01 1205.54 66.58 1205.36 66.1C1205.2 65.62 1205.12 65.1 1205.12 64.54C1205.12 63.84 1205.27 63.21 1205.57 62.65C1205.89 62.07 1206.32 61.57 1206.86 61.15C1207.4 60.73 1208.03 60.41 1208.75 60.19C1209.47 59.97 1210.22 59.86 1211 59.86C1211.8 59.86 1212.57 59.96 1213.31 60.16C1214.07 60.36 1214.77 60.65 1215.41 61.03C1216.07 61.39 1216.63 61.83 1217.09 62.35L1215.05 64.6C1214.67 64.24 1214.25 63.92 1213.79 63.64C1213.35 63.36 1212.9 63.14 1212.44 62.98C1211.98 62.8 1211.55 62.71 1211.15 62.71C1210.77 62.71 1210.43 62.75 1210.13 62.83C1209.83 62.89 1209.58 62.99 1209.38 63.13C1209.18 63.27 1209.02 63.45 1208.9 63.67C1208.8 63.87 1208.75 64.11 1208.75 64.39C1208.77 64.63 1208.83 64.86 1208.93 65.08C1209.05 65.28 1209.21 65.45 1209.41 65.59C1209.63 65.73 1209.96 65.89 1210.4 66.07C1210.84 66.25 1211.41 66.42 1212.11 66.58C1213.09 66.84 1213.91 67.13 1214.57 67.45C1215.23 67.77 1215.75 68.14 1216.13 68.56C1216.51 68.92 1216.78 69.34 1216.94 69.82C1217.1 70.3 1217.18 70.83 1217.18 71.41C1217.18 72.35 1216.91 73.19 1216.37 73.93C1215.85 74.67 1215.13 75.25 1214.21 75.67C1213.31 76.09 1212.29 76.3 1211.15 76.3ZM1221.84 76.33C1221.12 76.33 1220.56 76.12 1220.16 75.7C1219.78 75.28 1219.59 74.69 1219.59 73.93C1219.59 73.23 1219.79 72.66 1220.19 72.22C1220.61 71.76 1221.16 71.53 1221.84 71.53C1222.56 71.53 1223.11 71.74 1223.49 72.16C1223.89 72.56 1224.09 73.15 1224.09 73.93C1224.09 74.63 1223.88 75.21 1223.46 75.67C1223.06 76.11 1222.52 76.33 1221.84 76.33ZM1239.13 67.48C1239.27 68.72 1239.4 70.01 1239.52 71.35C1239.66 72.67 1239.76 73.99 1239.82 75.31C1239.9 76.61 1239.94 77.85 1239.94 79.03V81.22H1236.07V79.03C1236.07 77.81 1236.1 76.53 1236.16 75.19C1236.24 73.85 1236.34 72.52 1236.46 71.2C1236.6 69.88 1236.74 68.64 1236.88 67.48H1239.13ZM1238.08 59.77C1238.78 59.77 1239.33 59.98 1239.73 60.4C1240.13 60.82 1240.33 61.41 1240.33 62.17C1240.33 62.87 1240.12 63.45 1239.7 63.91C1239.28 64.35 1238.74 64.57 1238.08 64.57C1237.36 64.57 1236.8 64.37 1236.4 63.97C1236.02 63.55 1235.83 62.95 1235.83 62.17C1235.83 61.47 1236.03 60.9 1236.43 60.46C1236.85 60 1237.4 59.77 1238.08 59.77ZM1253.82 76.3C1252.3 76.3 1250.91 76.04 1249.65 75.52C1248.39 75 1247.3 74.26 1246.38 73.3C1245.46 72.32 1244.74 71.17 1244.22 69.85C1243.72 68.51 1243.47 67.05 1243.47 65.47C1243.47 63.95 1243.74 62.54 1244.28 61.24C1244.82 59.94 1245.57 58.8 1246.53 57.82C1247.49 56.84 1248.61 56.08 1249.89 55.54C1251.17 55 1252.56 54.73 1254.06 54.73C1255.08 54.73 1256.07 54.88 1257.03 55.18C1257.99 55.48 1258.87 55.9 1259.67 56.44C1260.47 56.96 1261.14 57.57 1261.68 58.27L1259.19 61C1258.67 60.46 1258.13 60.01 1257.57 59.65C1257.03 59.27 1256.46 58.99 1255.86 58.81C1255.28 58.61 1254.68 58.51 1254.06 58.51C1253.14 58.51 1252.27 58.68 1251.45 59.02C1250.65 59.36 1249.95 59.84 1249.35 60.46C1248.77 61.08 1248.31 61.82 1247.97 62.68C1247.63 63.52 1247.46 64.46 1247.46 65.5C1247.46 66.56 1247.62 67.52 1247.94 68.38C1248.28 69.24 1248.75 69.98 1249.35 70.6C1249.97 71.22 1250.7 71.7 1251.54 72.04C1252.4 72.36 1253.34 72.52 1254.36 72.52C1255.02 72.52 1255.66 72.43 1256.28 72.25C1256.9 72.07 1257.47 71.82 1257.99 71.5C1258.53 71.16 1259.02 70.77 1259.46 70.33L1261.38 73.42C1260.9 73.96 1260.26 74.45 1259.46 74.89C1258.66 75.33 1257.76 75.68 1256.76 75.94C1255.78 76.18 1254.8 76.3 1253.82 76.3ZM1271.99 76.3C1270.41 76.3 1269 75.95 1267.76 75.25C1266.52 74.53 1265.54 73.55 1264.82 72.31C1264.1 71.07 1263.74 69.66 1263.74 68.08C1263.74 66.5 1264.1 65.09 1264.82 63.85C1265.54 62.61 1266.52 61.64 1267.76 60.94C1269 60.22 1270.41 59.86 1271.99 59.86C1273.55 59.86 1274.95 60.22 1276.19 60.94C1277.43 61.64 1278.4 62.61 1279.1 63.85C1279.82 65.09 1280.18 66.5 1280.18 68.08C1280.18 69.66 1279.82 71.07 1279.1 72.31C1278.4 73.55 1277.43 74.53 1276.19 75.25C1274.95 75.95 1273.55 76.3 1271.99 76.3ZM1271.99 73.03C1272.85 73.03 1273.61 72.81 1274.27 72.37C1274.95 71.93 1275.48 71.34 1275.86 70.6C1276.26 69.86 1276.45 69.02 1276.43 68.08C1276.45 67.12 1276.26 66.27 1275.86 65.53C1275.48 64.79 1274.95 64.21 1274.27 63.79C1273.61 63.35 1272.85 63.13 1271.99 63.13C1271.13 63.13 1270.35 63.35 1269.65 63.79C1268.97 64.21 1268.44 64.8 1268.06 65.56C1267.68 66.3 1267.49 67.14 1267.49 68.08C1267.49 69.02 1267.68 69.86 1268.06 70.6C1268.44 71.34 1268.97 71.93 1269.65 72.37C1270.35 72.81 1271.13 73.03 1271.99 73.03ZM1283.48 76V60.19H1287.08L1287.14 63.43L1286.45 63.79C1286.65 63.07 1287.04 62.42 1287.62 61.84C1288.2 61.24 1288.89 60.76 1289.69 60.4C1290.49 60.04 1291.31 59.86 1292.15 59.86C1293.35 59.86 1294.35 60.1 1295.15 60.58C1295.97 61.06 1296.58 61.78 1296.98 62.74C1297.4 63.7 1297.61 64.9 1297.61 66.34V76H1293.92V66.61C1293.92 65.81 1293.81 65.15 1293.59 64.63C1293.37 64.09 1293.03 63.7 1292.57 63.46C1292.11 63.2 1291.55 63.08 1290.89 63.1C1290.35 63.1 1289.85 63.19 1289.39 63.37C1288.95 63.53 1288.56 63.77 1288.22 64.09C1287.9 64.39 1287.64 64.74 1287.44 65.14C1287.26 65.54 1287.17 65.98 1287.17 66.46V76H1285.34C1284.98 76 1284.64 76 1284.32 76C1284.02 76 1283.74 76 1283.48 76ZM1303.47 76V56.17H1307.16V76H1303.47ZM1300.35 63.61V60.19H1310.61V63.61H1300.35ZM1319.25 76.3C1317.95 76.3 1316.77 75.94 1315.71 75.22C1314.65 74.5 1313.8 73.52 1313.16 72.28C1312.52 71.04 1312.2 69.63 1312.2 68.05C1312.2 66.47 1312.52 65.06 1313.16 63.82C1313.8 62.58 1314.67 61.61 1315.77 60.91C1316.87 60.21 1318.11 59.86 1319.49 59.86C1320.29 59.86 1321.02 59.98 1321.68 60.22C1322.34 60.44 1322.92 60.76 1323.42 61.18C1323.92 61.6 1324.33 62.08 1324.65 62.62C1324.99 63.16 1325.22 63.74 1325.34 64.36L1324.53 64.15V60.19H1328.25V76H1324.5V72.22L1325.37 72.07C1325.23 72.61 1324.97 73.14 1324.59 73.66C1324.23 74.16 1323.77 74.61 1323.21 75.01C1322.67 75.39 1322.06 75.7 1321.38 75.94C1320.72 76.18 1320.01 76.3 1319.25 76.3ZM1320.27 73.03C1321.13 73.03 1321.89 72.82 1322.55 72.4C1323.21 71.98 1323.72 71.4 1324.08 70.66C1324.46 69.9 1324.65 69.03 1324.65 68.05C1324.65 67.09 1324.46 66.24 1324.08 65.5C1323.72 64.76 1323.21 64.18 1322.55 63.76C1321.89 63.34 1321.13 63.13 1320.27 63.13C1319.41 63.13 1318.65 63.34 1317.99 63.76C1317.35 64.18 1316.85 64.76 1316.49 65.5C1316.13 66.24 1315.95 67.09 1315.95 68.05C1315.95 69.03 1316.13 69.9 1316.49 70.66C1316.85 71.4 1317.35 71.98 1317.99 72.4C1318.65 72.82 1319.41 73.03 1320.27 73.03ZM1318.59 58L1317.42 56.23L1322.1 52.33L1324.14 55L1318.59 58ZM1339.3 76.3C1337.82 76.3 1336.49 75.94 1335.31 75.22C1334.13 74.5 1333.2 73.52 1332.52 72.28C1331.84 71.04 1331.5 69.64 1331.5 68.08C1331.5 66.52 1331.84 65.12 1332.52 63.88C1333.2 62.64 1334.13 61.66 1335.31 60.94C1336.49 60.22 1337.82 59.86 1339.3 59.86C1340.72 59.86 1342.01 60.13 1343.17 60.67C1344.33 61.21 1345.23 61.96 1345.87 62.92L1343.83 65.38C1343.53 64.96 1343.15 64.58 1342.69 64.24C1342.23 63.9 1341.74 63.63 1341.22 63.43C1340.7 63.23 1340.18 63.13 1339.66 63.13C1338.78 63.13 1337.99 63.35 1337.29 63.79C1336.61 64.21 1336.07 64.8 1335.67 65.56C1335.27 66.3 1335.07 67.14 1335.07 68.08C1335.07 69.02 1335.27 69.86 1335.67 70.6C1336.09 71.34 1336.65 71.93 1337.35 72.37C1338.05 72.81 1338.83 73.03 1339.69 73.03C1340.21 73.03 1340.71 72.95 1341.19 72.79C1341.69 72.61 1342.16 72.36 1342.6 72.04C1343.04 71.72 1343.45 71.32 1343.83 70.84L1345.87 73.33C1345.19 74.21 1344.25 74.93 1343.05 75.49C1341.87 76.03 1340.62 76.3 1339.3 76.3ZM1350.41 76V56.17H1354.1V76H1350.41ZM1347.29 63.61V60.19H1357.55V63.61H1347.29ZM1366.18 76.3C1364.88 76.3 1363.7 75.94 1362.64 75.22C1361.58 74.5 1360.73 73.52 1360.09 72.28C1359.45 71.04 1359.13 69.63 1359.13 68.05C1359.13 66.47 1359.45 65.06 1360.09 63.82C1360.73 62.58 1361.6 61.61 1362.7 60.91C1363.8 60.21 1365.04 59.86 1366.42 59.86C1367.22 59.86 1367.95 59.98 1368.61 60.22C1369.27 60.44 1369.85 60.76 1370.35 61.18C1370.85 61.6 1371.26 62.08 1371.58 62.62C1371.92 63.16 1372.15 63.74 1372.27 64.36L1371.46 64.15V60.19H1375.18V76H1371.43V72.22L1372.3 72.07C1372.16 72.61 1371.9 73.14 1371.52 73.66C1371.16 74.16 1370.7 74.61 1370.14 75.01C1369.6 75.39 1368.99 75.7 1368.31 75.94C1367.65 76.18 1366.94 76.3 1366.18 76.3ZM1367.2 73.03C1368.06 73.03 1368.82 72.82 1369.48 72.4C1370.14 71.98 1370.65 71.4 1371.01 70.66C1371.39 69.9 1371.58 69.03 1371.58 68.05C1371.58 67.09 1371.39 66.24 1371.01 65.5C1370.65 64.76 1370.14 64.18 1369.48 63.76C1368.82 63.34 1368.06 63.13 1367.2 63.13C1366.34 63.13 1365.58 63.34 1364.92 63.76C1364.28 64.18 1363.78 64.76 1363.42 65.5C1363.06 66.24 1362.88 67.09 1362.88 68.05C1362.88 69.03 1363.06 69.9 1363.42 70.66C1363.78 71.4 1364.28 71.98 1364.92 72.4C1365.58 72.82 1366.34 73.03 1367.2 73.03ZM1379.46 76V60.19H1383.06L1383.12 63.43L1382.43 63.79C1382.63 63.07 1383.02 62.42 1383.6 61.84C1384.18 61.24 1384.87 60.76 1385.67 60.4C1386.47 60.04 1387.29 59.86 1388.13 59.86C1389.33 59.86 1390.33 60.1 1391.13 60.58C1391.95 61.06 1392.56 61.78 1392.96 62.74C1393.38 63.7 1393.59 64.9 1393.59 66.34V76H1389.9V66.61C1389.9 65.81 1389.79 65.15 1389.57 64.63C1389.35 64.09 1389.01 63.7 1388.55 63.46C1388.09 63.2 1387.53 63.08 1386.87 63.1C1386.33 63.1 1385.83 63.19 1385.37 63.37C1384.93 63.53 1384.54 63.77 1384.2 64.09C1383.88 64.39 1383.62 64.74 1383.42 65.14C1383.24 65.54 1383.15 65.98 1383.15 66.46V76H1381.32C1380.96 76 1380.62 76 1380.3 76C1380 76 1379.72 76 1379.46 76ZM1404.97 76.3C1403.39 76.3 1401.98 75.95 1400.74 75.25C1399.5 74.53 1398.52 73.55 1397.8 72.31C1397.08 71.07 1396.72 69.66 1396.72 68.08C1396.72 66.5 1397.08 65.09 1397.8 63.85C1398.52 62.61 1399.5 61.64 1400.74 60.94C1401.98 60.22 1403.39 59.86 1404.97 59.86C1406.53 59.86 1407.93 60.22 1409.17 60.94C1410.41 61.64 1411.38 62.61 1412.08 63.85C1412.8 65.09 1413.16 66.5 1413.16 68.08C1413.16 69.66 1412.8 71.07 1412.08 72.31C1411.38 73.55 1410.41 74.53 1409.17 75.25C1407.93 75.95 1406.53 76.3 1404.97 76.3ZM1404.97 73.03C1405.83 73.03 1406.59 72.81 1407.25 72.37C1407.93 71.93 1408.46 71.34 1408.84 70.6C1409.24 69.86 1409.43 69.02 1409.41 68.08C1409.43 67.12 1409.24 66.27 1408.84 65.53C1408.46 64.79 1407.93 64.21 1407.25 63.79C1406.59 63.35 1405.83 63.13 1404.97 63.13C1404.11 63.13 1403.33 63.35 1402.63 63.79C1401.95 64.21 1401.42 64.8 1401.04 65.56C1400.66 66.3 1400.47 67.14 1400.47 68.08C1400.47 69.02 1400.66 69.86 1401.04 70.6C1401.42 71.34 1401.95 71.93 1402.63 72.37C1403.33 72.81 1404.11 73.03 1404.97 73.03ZM1421.74 76.3C1420.34 76.3 1419.08 76.07 1417.96 75.61C1416.86 75.13 1415.96 74.45 1415.26 73.57L1417.66 71.5C1418.26 72.18 1418.93 72.67 1419.67 72.97C1420.41 73.27 1421.19 73.42 1422.01 73.42C1422.35 73.42 1422.65 73.38 1422.91 73.3C1423.19 73.22 1423.43 73.1 1423.63 72.94C1423.83 72.78 1423.98 72.6 1424.08 72.4C1424.2 72.18 1424.26 71.94 1424.26 71.68C1424.26 71.2 1424.08 70.82 1423.72 70.54C1423.52 70.4 1423.2 70.25 1422.76 70.09C1422.34 69.93 1421.79 69.77 1421.11 69.61C1420.03 69.33 1419.13 69.01 1418.41 68.65C1417.69 68.27 1417.13 67.85 1416.73 67.39C1416.39 67.01 1416.13 66.58 1415.95 66.1C1415.79 65.62 1415.71 65.1 1415.71 64.54C1415.71 63.84 1415.86 63.21 1416.16 62.65C1416.48 62.07 1416.91 61.57 1417.45 61.15C1417.99 60.73 1418.62 60.41 1419.34 60.19C1420.06 59.97 1420.81 59.86 1421.59 59.86C1422.39 59.86 1423.16 59.96 1423.9 60.16C1424.66 60.36 1425.36 60.65 1426 61.03C1426.66 61.39 1427.22 61.83 1427.68 62.35L1425.64 64.6C1425.26 64.24 1424.84 63.92 1424.38 63.64C1423.94 63.36 1423.49 63.14 1423.03 62.98C1422.57 62.8 1422.14 62.71 1421.74 62.71C1421.36 62.71 1421.02 62.75 1420.72 62.83C1420.42 62.89 1420.17 62.99 1419.97 63.13C1419.77 63.27 1419.61 63.45 1419.49 63.67C1419.39 63.87 1419.34 64.11 1419.34 64.39C1419.36 64.63 1419.42 64.86 1419.52 65.08C1419.64 65.28 1419.8 65.45 1420 65.59C1420.22 65.73 1420.55 65.89 1420.99 66.07C1421.43 66.25 1422 66.42 1422.7 66.58C1423.68 66.84 1424.5 67.13 1425.16 67.45C1425.82 67.77 1426.34 68.14 1426.72 68.56C1427.1 68.92 1427.37 69.34 1427.53 69.82C1427.69 70.3 1427.77 70.83 1427.77 71.41C1427.77 72.35 1427.5 73.19 1426.96 73.93C1426.44 74.67 1425.72 75.25 1424.8 75.67C1423.9 76.09 1422.88 76.3 1421.74 76.3ZM1445.81 76.3C1444.51 76.3 1443.33 75.94 1442.27 75.22C1441.21 74.5 1440.36 73.52 1439.72 72.28C1439.08 71.04 1438.76 69.63 1438.76 68.05C1438.76 66.47 1439.08 65.06 1439.72 63.82C1440.36 62.58 1441.23 61.61 1442.33 60.91C1443.43 60.21 1444.67 59.86 1446.05 59.86C1446.85 59.86 1447.58 59.98 1448.24 60.22C1448.9 60.44 1449.48 60.76 1449.98 61.18C1450.48 61.6 1450.89 62.08 1451.21 62.62C1451.55 63.16 1451.78 63.74 1451.9 64.36L1451.09 64.15V60.19H1454.81V76H1451.06V72.22L1451.93 72.07C1451.79 72.61 1451.53 73.14 1451.15 73.66C1450.79 74.16 1450.33 74.61 1449.77 75.01C1449.23 75.39 1448.62 75.7 1447.94 75.94C1447.28 76.18 1446.57 76.3 1445.81 76.3ZM1446.83 73.03C1447.69 73.03 1448.45 72.82 1449.11 72.4C1449.77 71.98 1450.28 71.4 1450.64 70.66C1451.02 69.9 1451.21 69.03 1451.21 68.05C1451.21 67.09 1451.02 66.24 1450.64 65.5C1450.28 64.76 1449.77 64.18 1449.11 63.76C1448.45 63.34 1447.69 63.13 1446.83 63.13C1445.97 63.13 1445.21 63.34 1444.55 63.76C1443.91 64.18 1443.41 64.76 1443.05 65.5C1442.69 66.24 1442.51 67.09 1442.51 68.05C1442.51 69.03 1442.69 69.9 1443.05 70.66C1443.41 71.4 1443.91 71.98 1444.55 72.4C1445.21 72.82 1445.97 73.03 1446.83 73.03ZM1459.09 76V53.8H1462.75V63.43L1462.06 63.79C1462.26 63.07 1462.65 62.42 1463.23 61.84C1463.81 61.24 1464.5 60.76 1465.3 60.4C1466.1 60.04 1466.92 59.86 1467.76 59.86C1468.96 59.86 1469.96 60.1 1470.76 60.58C1471.58 61.06 1472.19 61.78 1472.59 62.74C1473.01 63.7 1473.22 64.9 1473.22 66.34V76H1469.53V66.61C1469.53 65.81 1469.42 65.15 1469.2 64.63C1468.98 64.09 1468.64 63.7 1468.18 63.46C1467.72 63.2 1467.16 63.08 1466.5 63.1C1465.96 63.1 1465.46 63.19 1465 63.37C1464.56 63.53 1464.17 63.77 1463.83 64.09C1463.51 64.39 1463.25 64.74 1463.05 65.14C1462.87 65.54 1462.78 65.98 1462.78 66.46V76H1460.95C1460.59 76 1460.25 76 1459.93 76C1459.63 76 1459.35 76 1459.09 76ZM1484.6 76.3C1483.02 76.3 1481.61 75.95 1480.37 75.25C1479.13 74.53 1478.15 73.55 1477.43 72.31C1476.71 71.07 1476.35 69.66 1476.35 68.08C1476.35 66.5 1476.71 65.09 1477.43 63.85C1478.15 62.61 1479.13 61.64 1480.37 60.94C1481.61 60.22 1483.02 59.86 1484.6 59.86C1486.16 59.86 1487.56 60.22 1488.8 60.94C1490.04 61.64 1491.01 62.61 1491.71 63.85C1492.43 65.09 1492.79 66.5 1492.79 68.08C1492.79 69.66 1492.43 71.07 1491.71 72.31C1491.01 73.55 1490.04 74.53 1488.8 75.25C1487.56 75.95 1486.16 76.3 1484.6 76.3ZM1484.6 73.03C1485.46 73.03 1486.22 72.81 1486.88 72.37C1487.56 71.93 1488.09 71.34 1488.47 70.6C1488.87 69.86 1489.06 69.02 1489.04 68.08C1489.06 67.12 1488.87 66.27 1488.47 65.53C1488.09 64.79 1487.56 64.21 1486.88 63.79C1486.22 63.35 1485.46 63.13 1484.6 63.13C1483.74 63.13 1482.96 63.35 1482.26 63.79C1481.58 64.21 1481.05 64.8 1480.67 65.56C1480.29 66.3 1480.1 67.14 1480.1 68.08C1480.1 69.02 1480.29 69.86 1480.67 70.6C1481.05 71.34 1481.58 71.93 1482.26 72.37C1482.96 72.81 1483.74 73.03 1484.6 73.03ZM1496.09 76V60.19H1499.72L1499.78 65.23L1499.27 64.09C1499.49 63.29 1499.87 62.57 1500.41 61.93C1500.95 61.29 1501.57 60.79 1502.27 60.43C1502.99 60.05 1503.74 59.86 1504.52 59.86C1504.86 59.86 1505.18 59.89 1505.48 59.95C1505.8 60.01 1506.06 60.08 1506.26 60.16L1505.27 64.21C1505.05 64.09 1504.78 63.99 1504.46 63.91C1504.14 63.83 1503.82 63.79 1503.5 63.79C1503 63.79 1502.52 63.89 1502.06 64.09C1501.62 64.27 1501.23 64.53 1500.89 64.87C1500.55 65.21 1500.28 65.61 1500.08 66.07C1499.9 66.51 1499.81 67.01 1499.81 67.57V76H1496.09ZM1514.01 76.3C1512.71 76.3 1511.53 75.94 1510.47 75.22C1509.41 74.5 1508.56 73.52 1507.92 72.28C1507.28 71.04 1506.96 69.63 1506.96 68.05C1506.96 66.47 1507.28 65.06 1507.92 63.82C1508.56 62.58 1509.43 61.61 1510.53 60.91C1511.63 60.21 1512.87 59.86 1514.25 59.86C1515.05 59.86 1515.78 59.98 1516.44 60.22C1517.1 60.44 1517.68 60.76 1518.18 61.18C1518.68 61.6 1519.09 62.08 1519.41 62.62C1519.75 63.16 1519.98 63.74 1520.1 64.36L1519.29 64.15V60.19H1523.01V76H1519.26V72.22L1520.13 72.07C1519.99 72.61 1519.73 73.14 1519.35 73.66C1518.99 74.16 1518.53 74.61 1517.97 75.01C1517.43 75.39 1516.82 75.7 1516.14 75.94C1515.48 76.18 1514.77 76.3 1514.01 76.3ZM1515.03 73.03C1515.89 73.03 1516.65 72.82 1517.31 72.4C1517.97 71.98 1518.48 71.4 1518.84 70.66C1519.22 69.9 1519.41 69.03 1519.41 68.05C1519.41 67.09 1519.22 66.24 1518.84 65.5C1518.48 64.76 1517.97 64.18 1517.31 63.76C1516.65 63.34 1515.89 63.13 1515.03 63.13C1514.17 63.13 1513.41 63.34 1512.75 63.76C1512.11 64.18 1511.61 64.76 1511.25 65.5C1510.89 66.24 1510.71 67.09 1510.71 68.05C1510.71 69.03 1510.89 69.9 1511.25 70.66C1511.61 71.4 1512.11 71.98 1512.75 72.4C1513.41 72.82 1514.17 73.03 1515.03 73.03ZM1527.92 68.62C1527.78 67.38 1527.64 66.1 1527.5 64.78C1527.38 63.44 1527.28 62.12 1527.2 60.82C1527.12 59.5 1527.08 58.25 1527.08 57.07V54.88H1530.98V57.07C1530.98 58.29 1530.94 59.57 1530.86 60.91C1530.8 62.25 1530.7 63.58 1530.56 64.9C1530.44 66.22 1530.3 67.46 1530.14 68.62H1527.92ZM1528.97 76.33C1528.25 76.33 1527.69 76.12 1527.29 75.7C1526.91 75.28 1526.72 74.69 1526.72 73.93C1526.72 73.23 1526.92 72.66 1527.32 72.22C1527.74 71.76 1528.29 71.53 1528.97 71.53C1529.69 71.53 1530.24 71.74 1530.62 72.16C1531.02 72.56 1531.22 73.15 1531.22 73.93C1531.22 74.63 1531.01 75.21 1530.59 75.67C1530.19 76.11 1529.65 76.33 1528.97 76.33Z" fill="white"/>
</svg>
